<svg id="Layer_5" enable-background="new 0 0 64 64" height="512" viewBox="0 0 64 64" width="512" xmlns="http://www.w3.org/2000/svg"><g><g><g><path d="m16 58v4h-8v-4.25c.64.16 1.31.25 2 .25h2z" fill="#ff826e"/></g><g><path d="m15 50h-.17c-.53 0-1.04.21-1.42.59l-1.41 1.41v6h-2c-.69 0-1.36-.09-2-.25-3.45-.89-6-4.02-6-7.75v-1c0-4.97 2.02-9.47 5.27-12.73 2.86-2.85 6.67-4.75 10.91-5.18l1.82 10.91h-2c-1.1 0-2 .9-2 2v6.27c-.29-.17-.64-.27-1-.27z" fill="#ff826e"/></g><g><path d="m24 36 4 6h-8z" fill="#ff826e"/></g><g><path d="m40 50h-2c-1.1 0-2 .9-2 2v2c0 1.1.9 2 2 2-1.1 0-2 .9-2 2v2c0 1.1.9 2 2 2h-6v-18c0-1.1-.9-2-2-2h-2l1.82-10.9c6.34.63 11.71 4.56 14.38 10.04-.13.26-.2.55-.2.86v2c0 1.1.9 2 2 2-1.1 0-2 .9-2 2v2z" fill="#ff826e"/></g><g><path d="m29.82 31.1-1.82 10.9-4-6 4-5c.61 0 1.22.03 1.82.1z" fill="#fc6e51"/></g><g><path d="m20 31 4 5-4 6-1.82-10.91c.6-.06 1.21-.09 1.82-.09z" fill="#fc6e51"/></g><g><path d="m14 9.47v5.53h-1c-.73 0-1.4.26-1.92.7-.7-1.33-1.08-2.83-1.08-4.37 0-5.15 4.18-9.33 9.33-9.33h8.79c1.2 0 2.36.48 3.21 1.33l.7.7c.63.63 1.44 1.06 2.32 1.24 2.12.42 3.65 2.29 3.65 4.45v1.28c0 1.64-.4 3.23-1.14 4.65-.51-.41-1.16-.65-1.86-.65h-1v-.53c0-1.36-1.11-2.47-2.47-2.47h-2.53-1-8-1-2.42c-.38 0-.76-.09-1.1-.26l-.11-.06c-.84-.42-1.37-1.27-1.37-2.21z" fill="#656d78"/></g><g><path d="m58 8h4v22h-4z" fill="#ffeaa7"/></g><g><path d="m50 12h4v18h-4z" fill="#ffeaa7"/></g><g><path d="m42 16h4v14h-4z" fill="#ffeaa7"/></g><g><path d="m48 56h2c1.1 0 2 .9 2 2v2c0 1.1-.9 2-2 2h-12c-1.1 0-2-.9-2-2v-2c0-1.1.9-2 2-2h2 4z" fill="#ffc729"/></g><g><path d="m48 46h4 4 2c1.1 0 2 .9 2 2v2c0 1.1-.9 2-2 2h-2-4c0-1.1-.9-2-2-2h-2-4v-2c0-1.1.9-2 2-2z" fill="#ffc729"/></g><g><path d="m48 34h4 4 2c1.1 0 2 .9 2 2v2c0 1.1-.9 2-2 2h-2-4-4-2c-1.1 0-2-.9-2-2v-2c0-1.1.9-2 2-2z" fill="#ffc729"/></g><g><path d="m48 40h4 4 2c1.1 0 2 .9 2 2v2c0 1.1-.9 2-2 2h-2-4-4-2c-1.1 0-2-.9-2-2v-2c0-.31.07-.6.2-.86.32-.67 1.01-1.14 1.8-1.14z" fill="#fcd770"/></g><g><path d="m56 52h2c1.1 0 2 .9 2 2v2c0 1.1-.9 2-2 2h-6c0-1.1-.9-2-2-2 1.1 0 2-.9 2-2v-2z" fill="#fcd770"/></g><g><path d="m48 50h2c1.1 0 2 .9 2 2v2c0 1.1-.9 2-2 2h-2-4-4-2c-1.1 0-2-.9-2-2v-2c0-1.1.9-2 2-2h2 4z" fill="#fcd770"/></g><g><path d="m32 44v18h-16v-4h1c1.66 0 3-1.34 3-3 0-.83-.34-1.58-.88-2.12s-1.29-.88-2.12-.88c0-.55-.22-1.05-.59-1.41-.12-.13-.26-.23-.41-.32v-6.27c0-1.1.9-2 2-2h2 8 2c1.1 0 2 .9 2 2z" fill="#aab2bd"/></g><g><path d="m14.83 50h.17c.36 0 .71.1 1 .27.15.09.29.19.41.32.37.36.59.86.59 1.41.83 0 1.58.34 2.12.88s.88 1.29.88 2.12c0 1.66-1.34 3-3 3h-1-4v-6l1.41-1.41c.38-.38.89-.59 1.42-.59z" fill="#f0d0b4"/></g><g><path d="m27 29 1 2-4 5-4-5 1-2z" fill="#f0d0b4"/></g><g><path d="m36.86 15.65c.09.07.18.15.26.23.54.54.88 1.29.88 2.12 0 1.66-1.34 3-3 3h-1v-5-1h1c.7 0 1.35.24 1.86.65z" fill="#f0d0b4"/></g><g><path d="m20 12h8c-1.1 0-2 .9-2 2v1h-4v-1c0-1.1-.9-2-2-2z" fill="#f0d0b4"/></g><g><path d="m34 21v2c0 3.31-2.69 6-6 6h-1-6-1c-3.31 0-6-2.69-6-6v-2-5c0 1.1.9 2 2 2h4c1.1 0 2-.9 2-2v-1h4v1c0 1.1.9 2 2 2h4c1.1 0 2-.9 2-2z" fill="#f0d0b4"/></g><g><path d="m14 16v5h-1c-.83 0-1.58-.34-2.12-.88s-.88-1.29-.88-2.12c0-.93.42-1.76 1.08-2.3.52-.44 1.19-.7 1.92-.7h1z" fill="#f0d0b4"/></g><g><path d="m20 46h8v4h-8z" fill="#69d6f4"/></g><g><path d="m34 15v1c0 1.1-.9 2-2 2h-4c-1.1 0-2-.9-2-2v-1-1c0-1.1.9-2 2-2h1 2.53c1.36 0 2.47 1.11 2.47 2.47z" fill="#69d6f4"/></g><g><path d="m14 15v-5.53c0 .94.53 1.79 1.37 2.21l.11.06c.34.17.72.26 1.1.26h2.42 1c1.1 0 2 .9 2 2v1 1c0 1.1-.9 2-2 2h-4c-1.1 0-2-.9-2-2z" fill="#69d6f4"/></g></g><g><path d="m24 26c2.226 0 4.194-1.418 4.897-3.53l.051-.154-1.897-.633-.051.155c-.431 1.293-1.637 2.162-3 2.162s-2.569-.869-3-2.163l-.051-.154-1.897.633.051.153c.703 2.113 2.671 3.531 4.897 3.531z"/><path d="m29 45h-10v6h10zm-2 4h-6v-2h6z"/><path d="m23 53h2v2h-2z"/><path d="m27 53h2v2h-2z"/><path d="m27 57h2v2h-2z"/><path d="m23 57h2v2h-2z"/><path d="m58 33h-12c-1.654 0-3 1.346-3 3v1.322c-3.428-4.431-8.636-7.13-14.377-7.312l-.02-.04c3.578-.308 6.397-3.314 6.397-6.97v-1c2.206 0 4-1.794 4-4 0-.98-.368-1.868-.956-2.564.615-1.396.956-2.909.956-4.436v-1.276c0-2.632-1.874-4.918-4.456-5.435-.688-.138-1.314-.473-1.81-.969l-.697-.697c-1.046-1.046-2.438-1.623-3.918-1.623h-8.785c-5.698 0-10.334 4.636-10.334 10.333 0 1.435.321 2.858.9 4.171-.554.686-.9 1.547-.9 2.496 0 2.206 1.794 4 4 4h.002l-.002 1c0 3.656 2.819 6.662 6.397 6.969l-.02.041c-10.189.33-18.377 8.722-18.377 18.99v1c0 3.909 2.51 7.235 6 8.475v4.525h31 12c1.654 0 3-1.346 3-3v-1h5c1.654 0 3-1.346 3-3v-2c0-.771-.301-1.468-.78-2 .48-.532.78-1.229.78-2v-2c0-.771-.301-1.468-.78-2 .48-.532.78-1.229.78-2v-2c0-.771-.301-1.468-.78-2 .48-.532.78-1.229.78-2v-2c0-1.654-1.346-3-3-3zm-13 3c0-.551.449-1 1-1h1v2h2v-2h2v2h2v-2h2v2h2v-2h1c.551 0 1 .449 1 1v2c0 .551-.449 1-1 1h-12c-.551 0-1-.449-1-1zm14 6v2c0 .551-.449 1-1 1h-12c-.551 0-1-.449-1-1v-2c0-.551.449-1 1-1h1v2h2v-2h2v2h2v-2h2v2h2v-2h1c.551 0 1 .449 1 1zm0 6v2c0 .551-.449 1-1 1h-5.184c-.414-1.161-1.514-2-2.816-2h-1v-2h2v2h2v-2h2v2h2v-2h1c.551 0 1 .449 1 1zm-21 7c-.551 0-1-.449-1-1v-2c0-.551.449-1 1-1h1v2h2v-2h2v2h2v-2h2v2h2v-2h1c.551 0 1 .449 1 1v2c0 .551-.449 1-1 1zm7-7c0-.551.449-1 1-1h1v2h-2zm-1.887-6.772c-.066.248-.113.503-.113.772v2c0 .771.301 1.468.78 2-.48.532-.78 1.229-.78 2v1h-2v-7h-2v7h-1c-1.654 0-3 1.346-3 3v2c0 .771.301 1.468.78 2-.48.532-.78 1.229-.78 2v2c0 .352.072.686.184 1h-2.184v-17c0-1.654-1.346-3-3-3h-.82l1.465-8.792c5.337.824 9.946 4.116 12.468 9.02zm-30.113 11.186 1.121-1.121c.189-.189.441-.293.708-.293h.171c.551 0 1 .449 1 1v1h1c1.103 0 2 .897 2 2s-.897 2-2 2h-4zm8 2.586c0-1.911-1.346-3.513-3.14-3.907-.163-.514-.468-.963-.86-1.316v-5.777c0-.551.449-1 1-1h12c.551 0 1 .449 1 1v17h-14v-2c2.206 0 4-1.794 4-4zm5.382-25 .438.875-2.82 3.524-2.819-3.524.437-.875zm-2.382 7.803 2.131 3.197h-4.263zm1.238-1.749 3.23-4.037c.061.002.121.004.182.006l-1.22 7.319zm-5.7-4.031 3.224 4.03-2.192 3.288-1.218-7.308c.063-.003.124-.008.186-.01zm5.462-18.023h-2c0-.352-.072-.686-.184-1h2.369c-.113.314-.185.648-.185 1zm-4 0v2c0 .551-.449 1-1 1h-4c-.551 0-1-.449-1-1v-1-2.382l.03.015c.48.24 1.017.367 1.553.367h2.417 1c.551 0 1 .449 1 1zm6 0c0-.551.449-1 1-1h1 2.528c.811 0 1.472.661 1.472 1.472v.528 1c0 .551-.449 1-1 1h-4c-.551 0-1-.449-1-1zm8 6v-4c1.103 0 2 .897 2 2s-.897 2-2 2zm-15.667-17h8.785c.946 0 1.835.369 2.505 1.038l.697.697c.776.776 1.756 1.301 2.832 1.516 1.65.329 2.848 1.79 2.848 3.473v1.276c0 1.114-.214 2.224-.617 3.261-.433-.161-.895-.261-1.383-.261h-.048c-.233-1.69-1.672-3-3.424-3h-2.528-1-8-1-2.417c-.227 0-.455-.054-.658-.156l-.112-.056c-.501-.25-.813-.754-.813-1.316 0-.811.661-1.472 1.472-1.472h1.528v-2h-1.528c-1.754 0-3.209 1.308-3.44 3l-.012 5h-.02c-.516 0-1.005.106-1.458.284-.356-.94-.542-1.944-.542-2.951 0-4.595 3.738-8.333 8.333-8.333zm-6.333 17c-1.103 0-2-.897-2-2s.897-2 2-2c0 .053.013.103.016.156l-.009 3.844zm2 3v-4.184c.314.112.648.184 1 .184h4c1.654 0 3-1.346 3-3h2c0 1.654 1.346 3 3 3h4c.352 0 .686-.072 1-.184v4.184c0 2.757-2.243 5-5 5h-8c-2.757 0-5-2.243-5-5zm-12 27v-1c0-8.473 6.237-15.497 14.357-16.773l1.463 8.773h-.82c-1.654 0-3 1.346-3 3v5h-.171c-.801 0-1.555.312-2.122.879l-1.096 1.096c-1.471-.191-2.611-1.453-2.611-2.975v-6h-2v6c0 2.414 1.721 4.434 4 4.899v4.101h-1c-3.86 0-7-3.14-7-7zm6 8.941c.329.037.662.059 1 .059h5v2h-6zm42 1.059c0 .551-.449 1-1 1h-12c-.551 0-1-.449-1-1v-2c0-.551.449-1 1-1h1v2h2v-2h2v2h2v-2h2v2h2v-2h1c.551 0 1 .449 1 1zm8-4c0 .551-.449 1-1 1h-5.184c-.133-.374-.335-.711-.596-1 .48-.532.78-1.229.78-2v-1h2v2h2v-2h1c.551 0 1 .449 1 1z"/><path d="m57 7v22h-2v-18h-6v18h-2v-14h-6v16h22v-24zm-12 22h-2v-12h2zm6-16h2v16h-2zm10 16h-2v-20h2z"/></g></g></svg>