<svg id="Capa_1" enable-background="new 0 0 512 512" height="512" viewBox="0 0 512 512" width="512" xmlns="http://www.w3.org/2000/svg"><g><g><g><g><g><path d="m325 110h172c8.284 0 15-6.716 15-15v-50c0-24.853-20.147-45-45-45h-422c-24.853 0-45 20.147-45 45v90c0 8.284 6.716 15 15 15h260z" fill="#8bbafc"/><path d="m275 150 50-40h172c8.284 0 15-6.716 15-15v-50c0-24.853-20.147-45-45-45h-211v150z" fill="#5393fb"/><path d="m320.891 98.287-45.891 36.713h-275v332c0 24.853 20.147 45 45 45h422c24.853 0 45-20.147 45-45v-372h-181.738c-3.406 0-6.711 1.159-9.371 3.287z" fill="#fbf3f3"/><path d="m512 467v-372h-181.738c-3.406 0-6.711 1.159-9.37 3.287l-45.892 36.713h-19v377h211c24.853 0 45-20.147 45-45z" fill="#dddcf3"/></g><g><g><g><g><path d="m155 210h-80c-8.284 0-15-6.716-15-15s6.716-15 15-15h80c8.284 0 15 6.716 15 15s-6.716 15-15 15z" fill="#dddcf3"/></g><g><path d="m155 270h-80c-8.284 0-15-6.716-15-15s6.716-15 15-15h80c8.284 0 15 6.716 15 15s-6.716 15-15 15z" fill="#dddcf3"/></g></g><g><g><path d="m80 82.5h-20c-8.284 0-15-6.716-15-15s6.716-15 15-15h20c8.284 0 15 6.716 15 15s-6.716 15-15 15z" fill="#faf16c"/></g><g><path d="m160 82.5h-20c-8.284 0-15-6.716-15-15s6.716-15 15-15h20c8.284 0 15 6.716 15 15s-6.716 15-15 15z" fill="#de5ca3"/></g><g><path d="m240 82.5h-20c-8.284 0-15-6.716-15-15s6.716-15 15-15h20c8.284 0 15 6.716 15 15s-6.716 15-15 15z" fill="#a2e786"/></g></g></g></g></g><g><path d="m195 450c-8.284 0-15-6.716-15-15v-90c0-8.284 6.716-15 15-15s15 6.716 15 15v90c0 8.284-6.716 15-15 15z" fill="#a2e786"/></g><g><path d="m135 450c-8.284 0-15-6.716-15-15v-60c0-8.284 6.716-15 15-15s15 6.716 15 15v60c0 8.284-6.716 15-15 15z" fill="#de5ca3"/></g><g><path d="m75 450c-8.284 0-15-6.716-15-15v-30c0-8.284 6.716-15 15-15s15 6.716 15 15v30c0 8.284-6.716 15-15 15z" fill="#faf16c"/></g></g></g><g><path d="m340 180c-60.654 0-110 49.346-110 110 0 30.327 12.336 57.827 32.255 77.745l109.745-77.745z" fill="#de5ca3"/><path d="m256 219.065v141.87c1.992 2.355 4.075 4.631 6.255 6.81l109.745-77.745-32-110c-33.646 0-63.806 15.189-84 39.065z" fill="#da1d81"/><path d="m340 180v134l110-24c0-60.654-49.346-110-110-110z" fill="#00cb75"/><path d="m262.255 367.745c19.918 19.919 47.418 32.255 77.745 32.255 60.654 0 110-49.346 110-110h-110z" fill="#f2d231"/></g></g></svg>