<svg id="Layer_1" enable-background="new 0 0 512 512" height="512" viewBox="0 0 512 512" width="512" xmlns="http://www.w3.org/2000/svg"><g><path d="m197.677 315.516c-109.174 0-197.677-27.651-197.677-61.761v118.971c27.746 25.796 105.764 44.378 197.677 44.378s169.931-18.582 197.677-44.378v-118.971c0 34.11-88.503 61.761-197.677 61.761z" fill="#80b4fb"/><path d="m106.316 308.534c-63.181-10.307-106.316-30.968-106.316-54.779v118.971c17.853 16.599 56.524 30.209 106.316 37.805z" fill="#0290f4"/><path d="m197.677 111.243c-109.174 0-197.677-13.061-197.677-47.171v98.209c0 34.109 88.503 61.76 197.677 61.76s197.677-27.651 197.677-61.76v-98.209c0 34.11-88.503 47.171-197.677 47.171z" fill="#80b4fb"/><path d="m106.316 107.449c-63.181-6.014-106.316-19.566-106.316-43.377v98.209c0 23.81 43.135 44.471 106.316 54.778z" fill="#0290f4"/><path d="m197.677 413.724c-109.174 0-197.677-27.651-197.677-61.761v95.964c0 34.109 88.503 61.76 197.677 61.76s197.677-27.651 197.677-61.76v-95.964c0 34.11-88.503 61.761-197.677 61.761z" fill="#9dc6fb"/><path d="m106.316 406.742c-63.181-10.307-106.316-30.967-106.316-54.778v95.964c0 23.811 43.135 44.471 106.316 54.778z" fill="#80b4fb"/><path d="m197.677 221.796c-109.174 0-197.677-27.651-197.677-61.76v95.964c0 34.109 88.503 61.761 197.677 61.761s197.677-27.652 197.677-61.761v-95.964c0 34.109-88.503 61.76-197.677 61.76z" fill="#9dc6fb"/><path d="m106.316 214.814c-63.181-10.307-106.316-30.967-106.316-54.778v95.964c0 23.811 43.135 44.471 106.316 54.778z" fill="#80b4fb"/><ellipse cx="197.677" cy="64.072" fill="#bed8fb" rx="197.677" ry="61.76"/><path d="m90.528 64.072c0-23.484 21.153-44.656 55.028-59.586-83.883 7.146-145.556 31.114-145.556 59.586 0 28.473 61.673 52.44 145.556 59.586-33.876-14.93-55.028-36.102-55.028-59.586z" fill="#9dc6fb"/><circle cx="395.354" cy="118.957" fill="#ff656f" r="116.645"/><path d="m339.961 118.957c0-53.822 36.456-99.122 86.019-112.574-9.761-2.649-20.027-4.071-30.626-4.071-64.421 0-116.645 52.224-116.645 116.645s52.224 116.645 116.645 116.645c10.6 0 20.865-1.422 30.626-4.071-49.563-13.452-86.019-58.752-86.019-112.574z" fill="#ff4756"/><path d="m470.773 103.119h-16.305c-1.114 0-2.118-.711-2.448-1.775-1.081-3.48-2.472-6.822-4.143-9.995-.52-.987-.315-2.2.474-2.989l11.532-11.532c2.013-2.013 2.013-5.278 0-7.291l-15.108-15.108c-2.013-2.013-5.277-2.013-7.291 0l-11.532 11.532c-.789.789-2.002.994-2.989.474-3.173-1.671-6.515-3.063-9.995-4.143-1.064-.33-1.775-1.334-1.775-2.449v-16.305c0-2.847-2.308-5.156-5.156-5.156h-21.366c-2.847 0-5.155 2.308-5.155 5.156v16.305c0 1.114-.711 2.118-1.775 2.449-3.48 1.08-6.822 2.472-9.995 4.143-.987.52-2.201.315-2.989-.474l-11.532-11.532c-2.013-2.013-5.277-2.013-7.291 0l-15.108 15.108c-2.013 2.013-2.013 5.278 0 7.291l11.532 11.532c.789.789.994 2.002.474 2.989-1.671 3.173-3.063 6.515-4.143 9.995-.33 1.064-1.334 1.775-2.448 1.775h-16.305c-2.847 0-5.156 2.308-5.156 5.156v21.366c0 2.847 2.308 5.155 5.155 5.155h16.305c1.114 0 2.118.711 2.448 1.775 1.081 3.48 2.472 6.822 4.143 9.995.52.987.315 2.2-.474 2.989l-11.532 11.532c-2.013 2.013-2.013 5.277 0 7.291l15.108 15.108c2.013 2.013 5.278 2.013 7.291 0l11.532-11.532c.789-.789 2.002-.994 2.989-.474 3.173 1.671 6.515 3.063 9.995 4.143 1.064.33 1.775 1.334 1.775 2.449v16.305c0 2.847 2.308 5.156 5.156 5.156h21.366c2.847 0 5.155-2.308 5.155-5.155v-16.305c0-1.114.711-2.118 1.775-2.449 3.48-1.08 6.822-2.472 9.995-4.143.987-.52 2.201-.315 2.989.474l11.532 11.532c2.013 2.013 5.277 2.013 7.291 0l15.108-15.108c2.013-2.013 2.013-5.278 0-7.291l-11.532-11.532c-.789-.789-.994-2.002-.474-2.989 1.671-3.173 3.063-6.515 4.143-9.995.33-1.064 1.334-1.775 2.448-1.775h16.305c2.847 0 5.156-2.308 5.156-5.156v-21.366c.001-2.848-2.307-5.156-5.155-5.156zm-75.419 46.15c-16.741 0-30.312-13.571-30.312-30.312s13.571-30.312 30.312-30.312 30.312 13.571 30.312 30.312-13.571 30.312-30.312 30.312z" fill="#ffe181"/><path d="m358.285 118.957c0-34.082 22.192-62.964 52.908-73.032v-2.387c0-2.847-2.308-5.156-5.155-5.156h-21.366c-2.847 0-5.155 2.308-5.155 5.156v16.305c0 1.114-.711 2.118-1.775 2.449-3.48 1.08-6.822 2.472-9.995 4.143-.987.52-2.201.315-2.989-.474l-11.532-11.532c-2.013-2.013-5.277-2.013-7.291 0l-15.108 15.108c-2.013 2.013-2.013 5.278 0 7.291l11.532 11.532c.789.789.994 2.002.474 2.989-1.671 3.173-3.063 6.515-4.144 9.995-.33 1.064-1.334 1.775-2.448 1.775h-16.305c-2.847 0-5.156 2.308-5.156 5.156v21.366c0 2.847 2.308 5.155 5.155 5.155h16.305c1.114 0 2.118.711 2.448 1.775 1.081 3.48 2.472 6.822 4.144 9.995.52.987.315 2.2-.474 2.989l-11.532 11.532c-2.013 2.013-2.013 5.277 0 7.291l15.108 15.108c2.013 2.014 5.278 2.014 7.291 0l11.532-11.532c.789-.789 2.002-.994 2.989-.474 3.173 1.671 6.515 3.063 9.995 4.143 1.064.33 1.775 1.334 1.775 2.449v16.305c0 2.847 2.308 5.156 5.155 5.156h21.366c2.847 0 5.155-2.308 5.155-5.155v-2.387c-30.715-10.07-52.907-38.952-52.907-73.034z" fill="#fec458"/></g></svg>