<svg id="Layer_1" enable-background="new 0 0 512.352 512.352" height="512" viewBox="0 0 512.352 512.352" width="512" xmlns="http://www.w3.org/2000/svg"><g><path d="m470.402 364.434c-69.65 137.359-243.62 170.05-358.1 83.939-58.162-43.699-96.08-113.821-96.08-192.34 0-132.52 107.41-240 240-240 179.315 0 294.521 189.671 214.18 348.401z" fill="#aaef68"/></g><g><path d="m470.402 364.434c-79.867 157.508-296.288 176.971-403.35 39.319 31.89-47.467 99.011-95.753 149.62-72.56 18.26 8.37 33.1 25.89 53.16 26.91 30.11 1.52 50.54-34.65 80.56-37.49 16.94-1.6 36.01 7.5 49.97-2.23 12.25-8.529 12.49-26.05 15.88-40.59 10.099-43.339 56.512-65.207 77.75-55.029 6.807 47.199-.544 96.137-23.59 141.67z" fill="#99d856"/></g><g><path d="m91.673 149.318c4.706-17.091 12.815-34.289 30.096-38.264 12.519-2.88 17.504 1.657 28.817-11.108 12.859-14.508 20.819-30.127 42.54-41.44 46.263-24.095 67.901 29.262 25.392 41.512-14.195 4.09-28.133 2.632-47.432 14.582-12.227 7.571-13.562 13.051-18.114 25.294-12.093 32.523-43.263 65.602-60.489 52.046-10.91-8.586-3.805-31.746-.81-42.622z" fill="#fff"/></g><g><path d="m392.324 433.946c.458-.346.908-.691 1.359-1.047 6.941-5.471 17.001-4.278 22.47 2.663 5.469 6.94 4.277 17.001-2.664 22.47-19.88 15.668-37.484-11.77-21.165-24.086z" fill="#4d0033"/></g><g><path d="m2.334 223.219c18.136-140.317 146.365-239.212 286.702-221.074 99.933 12.917 180.407 82.289 210.556 174.297 26.831 81.809 10.774 174.265-46.2 242.92-5.643 6.801-15.729 7.739-22.53 2.095-6.8-5.643-7.738-15.73-2.095-22.53 49.823-60.038 63.881-140.973 40.417-212.516-26.755-81.651-99.077-141.521-184.25-152.529-122.497-15.846-235.032 70.943-250.864 193.439-22.772 176.19 158.113 305.001 315.823 232.223 8.023-3.702 17.529-.2 21.232 7.823s.2 17.529-7.824 21.231c-180.922 83.497-386.918-64.602-360.967-265.379z" fill="#4d0033"/></g><g><path d="m253.3 290.113-23.16-55.913c-11.963-28.88-45.223-39.983-70.775-27.981-7.999 3.759-17.528.32-21.285-7.679-3.757-7.998-.32-17.527 7.678-21.284 41.884-19.677 94.917-1.242 113.946 44.698l23.16 55.912c11.918 28.776 45.241 40.144 71.011 27.869 7.979-3.798 17.525-.41 21.325 7.567 3.799 7.979.411 17.525-7.567 21.324-42.186 20.092-95.331 1.361-114.333-44.513z" fill="#4d0033"/></g><g fill="#4d0033"><path d="m210.418 305.697c-30.109 15.727-68.007.983-78.934-31.8 4.558 4.698 7.97 9.312 15.805 9.312 14.03 0 21.331-16.989 11.483-27.141l-31.511-32.482c-6.144-6.333-16.283-6.496-22.625-.344l-32.482 31.511c-6.343 6.153-6.496 16.282-.343 22.625 6.152 6.343 16.282 6.495 22.625.344l3.975-3.856c11.878 57.791 75.669 86.917 126.824 60.195 7.833-4.091 10.865-13.757 6.774-21.589-4.092-7.833-13.757-10.866-21.591-6.775z"/><path d="m441.505 234.689c-6.152-6.343-16.282-6.495-22.625-.344l-3.975 3.856c-11.871-57.758-75.598-86.951-126.823-60.195-7.833 4.091-10.865 13.757-6.774 21.589 4.091 7.833 13.756 10.864 21.59 6.774 30.108-15.726 68.005-.983 78.934 31.799l-4.318-4.451c-6.153-6.341-16.282-6.496-22.625-.344-6.342 6.153-6.497 16.282-.344 22.625l31.51 32.482c6.158 6.348 16.296 6.483 22.625.344l32.482-31.511c6.342-6.153 6.496-16.282.343-22.624z"/></g></svg>