<svg height="512pt" viewBox="-42 0 512 512.00047" width="512pt" xmlns="http://www.w3.org/2000/svg"><path d="m428.433594 336.667969c0 31.625-21.464844 58.988281-52.191406 66.519531l-6.988282 1.710938-92.5625 22.703124c-8.386718 2.09375-17.074218-3.03125-19.183594-11.621093-2.082031-8.511719 3.121094-17.097657 11.632813-19.179688l99.550781-24.414062c.191406-.042969.382813-.097657.5625-.148438 16.195313-4.242187 27.457032-18.78125 27.457032-35.570312 0-17.054688-11.671876-31.445313-27.457032-35.582031-2.984375-.792969-6.101562-1.203126-9.328125-1.203126h-87.011719c-8.765624 0-15.859374-7.097656-15.859374-15.863281 0-8.753906 7.09375-15.859375 15.859374-15.859375h87.011719c3.160157 0 6.28125.210938 9.328125.632813 33.378906 4.558593 59.179688 33.257812 59.179688 67.875zm0 0" fill="#aed0ff"/><path d="m428.433594 336.667969c0 31.625-21.464844 58.988281-52.191406 66.519531l-6.988282 1.710938v-32.660157c16.195313-4.242187 27.457032-18.78125 27.457032-35.570312 0-17.054688-11.671876-31.445313-27.457032-35.582031v-32.292969c33.378906 4.558593 59.179688 33.257812 59.179688 67.875zm0 0" fill="#8cbcff"/><path d="m340.4375 250.957031-26.125 141.433594c-6.378906 56.769531-52.046875 99.539063-106.277344 99.539063-54.234375 0-99.902344-42.769532-106.277344-99.539063l-26.125-141.433594c-1.195312-6.492187 3.792969-12.488281 10.402344-12.488281h244c6.605469 0 11.597656 5.996094 10.402344 12.488281zm0 0" fill="#4895ff"/><path d="m340.4375 250.957031-26.125 141.433594c-6.378906 56.769531-52.046875 99.539063-106.277344 99.539063v-253.460938h122c6.605469 0 11.597656 5.996094 10.402344 12.488281zm0 0" fill="#2682ff"/><path d="m414.71875 456.371094-22.523438 25.242187c-16.957031 19.011719-45.179687 30.386719-75.367187 30.386719h-217.585937c-30.1875 0-58.410157-11.375-75.378907-30.386719l-22.511719-25.242187c-3.035156-3.402344-.625-8.808594 3.941407-8.808594h405.480469c4.570312 0 6.980468 5.40625 3.945312 8.808594zm0 0" fill="#aed0ff"/><path d="m414.71875 456.371094-22.523438 25.242187c-16.957031 19.011719-45.179687 30.386719-75.367187 30.386719h-108.792969v-64.4375h202.738282c4.570312 0 6.980468 5.40625 3.945312 8.808594zm0 0" fill="#8cbcff"/><path d="m208.988281 5.949219c-5.476562-6.839844-15.457031-7.945313-22.292969-2.46875-6.839843 5.476562-7.945312 15.457031-2.46875 22.292969 9.050782 11.308593 14.363282 33.84375-13.332031 51.4375-27.335937 17.371093-37.539062 52.558593-23.726562 81.855468l15.597656 33.089844c3.734375 7.917969 13.183594 11.316406 21.109375 7.582031s11.320312-13.1875 7.582031-21.109375l-15.597656-33.089844c-7.011719-14.871093-1.832031-32.734374 12.046875-41.550781 42.335938-26.898437 42.855469-70.839843 21.082031-98.039062zm0 0" fill="#ff5e93"/><path d="m284.28125 73.152344c5.230469-7.027344 3.773438-16.964844-3.253906-22.195313-7.027344-5.226562-16.964844-3.769531-22.191406 3.257813l-19.492188 26.195312c-11.4375 15.375-12.453125 35.921875-2.582031 52.34375 4.304687 7.164063 5.253906 13.992188-.289063 20.289063l-11.710937 13.296875c-5.789063 6.574218-5.152344 16.597656 1.421875 22.386718 6.574218 5.785157 16.597656 5.148438 22.386718-1.421874l11.707032-13.296876c12.984375-14.742187 16.566406-36.136718 3.675781-57.59375-3.21875-5.355468-2.886719-12.054687.839844-17.066406zm0 0" fill="#ff3c7d"/></svg>