<svg height="512" viewBox="0 0 512 512" width="512" xmlns="http://www.w3.org/2000/svg"><g><g><rect fill="#57a4ff" height="480" rx="40" width="272" x="120" y="16"/><path d="m304 48h-96l-8-32h112z" fill="#57565c"/><g fill="#e0e0e2"><path d="m217.167 308.674-43.168-20.674 3.674 47.722z"/><path d="m294.833 203.326 43.168 20.674-3.674-47.722z"/></g></g><g><path d="m352 8h-192a48.051 48.051 0 0 0 -48 48v400a48.051 48.051 0 0 0 48 48h192a48.051 48.051 0 0 0 48-48v-400a48.051 48.051 0 0 0 -48-48zm-50.25 16-4 16h-83.5l-4-16zm82.25 432a32.042 32.042 0 0 1 -32 32h-192a32.042 32.042 0 0 1 -32-32v-400a32.042 32.042 0 0 1 32-32h33.75l6.49 25.94a8 8 0 0 0 7.76 6.06h96a8 8 0 0 0 7.76-6.06l6.49-25.94h33.75a32.042 32.042 0 0 1 32 32z"/><path d="m296 464h-80a8 8 0 0 0 0 16h80a8 8 0 0 0 0-16z"/><path d="m344 248a8 8 0 0 0 -8 8 80.091 80.091 0 0 1 -80 80 79.218 79.218 0 0 1 -51.417-18.708l12.584-8.618-43.167-20.674 3.674 47.722 13.3-9.107a95.094 95.094 0 0 0 65.026 25.385 96.108 96.108 0 0 0 96-96 8 8 0 0 0 -8-8z"/><path d="m256 176a79.222 79.222 0 0 1 51.417 18.708l-12.584 8.618 43.167 20.674-3.674-47.722-13.3 9.106a95.1 95.1 0 0 0 -65.026-25.384 96.108 96.108 0 0 0 -96 96 8 8 0 0 0 16 0 80.091 80.091 0 0 1 80-80z"/></g></g></svg>