<svg id="Capa_1" enable-background="new 0 0 512 512" height="512" viewBox="0 0 512 512" width="512" xmlns="http://www.w3.org/2000/svg"><g><g><g><g><path d="m486.508 364.75v-263.767c0-6.107-4.957-11.064-11.064-11.064h-438.886c-6.107 0-11.064 4.957-11.064 11.064v263.767z" fill="#557983"/><path d="m443.478 100.982v263.768h43.031v-263.768c0-6.109-4.955-11.064-11.064-11.064h-43.031c6.109 0 11.064 4.955 11.064 11.064z" fill="#47666b"/><path d="m486.509 355.931v29.031c0 6.109-4.955 11.064-11.064 11.064h-438.888c-6.109 0-11.064-4.955-11.064-11.064v-29.031z" fill="#7da2b0"/><path d="m486.509 355.931v29.031c0 6.109-4.955 11.064-11.064 11.064h-43.031c6.109 0 11.064-4.955 11.064-11.064v-29.031z" fill="#688d97"/><g><path d="m453.317 133.416v212.207c0 5.687-4.615 10.302-10.302 10.302h-374.028c-5.687 0-10.302-4.615-10.302-10.302v-212.207c0-5.687 4.615-10.302 10.302-10.302h374.028c5.687 0 10.302 4.615 10.302 10.302z" fill="#b5dbfd"/><g fill="#8dcafc"><path d="m360.91 130.634c0 14.927-12.105 27.032-27.032 27.032h-62.501l-11.445 15.968c-2.06 2.864-6.325 2.864-8.376 0l-11.456-15.968h-62.501c-7.459 0-14.217-3.029-19.11-7.922-4.893-4.883-7.912-11.641-7.912-19.11 0-2.606.371-5.13 1.061-7.52h208.2c.701 2.39 1.072 4.914 1.072 7.52z"/><path d="m453.317 133.412v212.217c0 5.687-4.615 10.302-10.302 10.302h-35.562c5.687 0 10.302-4.615 10.302-10.302v-212.217c0-5.687-4.615-10.302-10.302-10.302h35.562c5.686 0 10.302 4.615 10.302 10.302z"/></g></g></g></g><g><path d="m180.957 390.21h-170.655c-5.69 0-10.302 4.612-10.302 10.302v20.483c0 5.689 4.612 10.302 10.302 10.302h170.656v-41.087z" fill="#a9d3d8"/><path d="m501.698 390.21h-165.425v41.087h165.426c5.69 0 10.302-4.612 10.302-10.302v-20.483c-.001-5.69-4.613-10.302-10.303-10.302z" fill="#a9d3d8"/><path d="m511.996 400.507v20.49c0 5.687-4.605 10.302-10.302 10.302h-36.093c5.687 0 10.302-4.615 10.302-10.302v-20.49c0-5.687-4.615-10.302-10.302-10.302h36.093c5.697 0 10.302 4.616 10.302 10.302z" fill="#90bac4"/><g><path d="m168.113 390.21h175.775v41.086h-175.775z" fill="#557983"/></g></g></g><g><g><g><circle cx="137.054" cy="227.192" fill="#eef4f5" r="45.736"/><path d="m182.788 227.192c0 25.258-20.477 45.735-45.735 45.735-3.216 0-6.352-.334-9.38-.965 20.762-4.332 36.355-22.728 36.355-44.77s-15.593-40.438-36.355-44.77c3.028-.631 6.164-.965 9.38-.965 25.259 0 45.735 20.477 45.735 45.735z" fill="#cbe5e7"/><path d="m173.196 255.21c-8.361 10.781-21.442 17.716-36.143 17.716s-27.782-6.935-36.143-17.716c6.547-13.342 20.271-22.528 36.143-22.528s29.597 9.187 36.143 22.528z" fill="#27e19d"/><path d="m173.196 255.21c-8.361 10.781-21.442 17.716-36.143 17.716-3.216 0-6.352-.334-9.38-.965 16.151-3.367 29.177-15.253 34.165-30.743 4.763 3.727 8.671 8.508 11.358 13.992z" fill="#26d192"/><g><g><path d="m122.027 221.769v5.751c0 8.426 6.896 15.482 15.321 15.32 8.164-.157 14.732-6.822 14.732-15.024v-6.048c0-8.299-6.728-15.026-15.026-15.026-8.299 0-15.027 6.728-15.027 15.027z" fill="#ffcec0"/></g></g></g></g><g><g><circle cx="256.001" cy="227.192" fill="#eef4f5" r="45.736"/><path d="m301.736 227.192c0 25.258-20.477 45.735-45.735 45.735-3.216 0-6.352-.334-9.38-.965 20.762-4.332 36.355-22.728 36.355-44.77s-15.593-40.438-36.355-44.77c3.028-.631 6.164-.965 9.38-.965 25.258 0 45.735 20.477 45.735 45.735z" fill="#cbe5e7"/><path d="m292.144 255.21c-8.361 10.781-21.442 17.716-36.143 17.716s-27.782-6.935-36.143-17.716c6.547-13.342 20.271-22.528 36.143-22.528 15.872.001 29.596 9.187 36.143 22.528z" fill="#fddd45"/><path d="m292.144 255.21c-8.361 10.781-21.442 17.716-36.143 17.716-3.216 0-6.352-.334-9.38-.965 16.151-3.367 29.177-15.253 34.165-30.743 4.762 3.727 8.67 8.508 11.358 13.992z" fill="#f8c52d"/><g><g><path d="m240.975 221.769v5.751c0 8.426 6.896 15.482 15.321 15.32 8.164-.157 14.732-6.822 14.732-15.024v-6.048c0-8.299-6.728-15.026-15.026-15.026-8.3 0-15.027 6.728-15.027 15.027z" fill="#ffcec0"/></g></g></g></g><g><g><circle cx="374.948" cy="227.192" fill="#eef4f5" r="45.736"/><path d="m420.683 227.192c0 25.258-20.477 45.735-45.735 45.735-3.216 0-6.352-.334-9.38-.965 20.762-4.332 36.355-22.728 36.355-44.77s-15.593-40.438-36.355-44.77c3.028-.631 6.164-.965 9.38-.965 25.258 0 45.735 20.477 45.735 45.735z" fill="#cbe5e7"/><path d="m411.091 255.21c-8.361 10.781-21.442 17.716-36.143 17.716s-27.782-6.935-36.143-17.716c6.547-13.342 20.271-22.528 36.143-22.528s29.596 9.187 36.143 22.528z" fill="#fb3a82"/><path d="m411.091 255.21c-8.361 10.781-21.442 17.716-36.143 17.716-3.216 0-6.352-.334-9.38-.965 16.151-3.367 29.177-15.253 34.165-30.743 4.763 3.727 8.67 8.508 11.358 13.992z" fill="#fb1466"/><g><g><path d="m359.922 221.769v5.751c0 8.426 6.896 15.482 15.321 15.32 8.163-.157 14.732-6.822 14.732-15.024v-6.048c0-8.299-6.728-15.026-15.026-15.026-8.3 0-15.027 6.728-15.027 15.027z" fill="#ffcec0"/></g></g></g></g></g><g><path d="m333.878 80.701h-156.274c-14.929 0-27.032 12.102-27.032 27.032 0 14.929 12.102 27.032 27.032 27.032h62.497l11.454 15.971c2.055 2.865 6.316 2.865 8.371 0l11.455-15.971h62.497c14.929 0 27.032-12.102 27.032-27.032 0-14.93-12.103-27.032-27.032-27.032z" fill="#fddd45"/><path d="m360.914 107.736c0 14.927-12.105 27.032-27.032 27.032h-35.882c14.927 0 27.022-12.105 27.022-27.032 0-7.469-3.029-14.227-7.912-19.12-4.893-4.883-11.641-7.912-19.11-7.912h35.881c7.458 0 14.216 3.029 19.11 7.912 4.894 4.894 7.923 11.652 7.923 19.12z" fill="#f8c52d"/></g><g fill="#eef4f5"><path d="m146.845 316.381h-19.583c-4.268 0-7.726-3.459-7.726-7.726s3.459-7.726 7.726-7.726h19.583c4.268 0 7.726 3.459 7.726 7.726s-3.458 7.726-7.726 7.726z"/><path d="m265.272 316.381h-19.582c-4.268 0-7.726-3.459-7.726-7.726s3.459-7.726 7.726-7.726h19.581c4.268 0 7.726 3.459 7.726 7.726.001 4.267-3.458 7.726-7.725 7.726z"/><path d="m383.698 316.381h-19.581c-4.268 0-7.726-3.459-7.726-7.726s3.459-7.726 7.726-7.726h19.581c4.268 0 7.726 3.459 7.726 7.726.001 4.267-3.458 7.726-7.726 7.726z"/></g></g></svg>