<svg id="Capa_1" enable-background="new 0 0 512 512" height="512" viewBox="0 0 512 512" width="512" xmlns="http://www.w3.org/2000/svg"><g><path d="m414.33 158.33v11.67h-30v-11.67c0-70.76-57.57-128.33-128.33-128.33s-128.33 57.57-128.33 128.33v11.67h-30v-11.67c0-87.3 71.02-158.33 158.33-158.33s158.33 71.03 158.33 158.33z" fill="#393e9f"/><path d="m414.33 158.33v11.67h-30v-11.67c0-70.76-57.57-128.33-128.33-128.33v-30c87.31 0 158.33 71.03 158.33 158.33z" fill="#340d66"/><path d="m175.287 248.594h-54.972c-13.767 0-24.928-11.161-24.928-24.928v-43.901c0-13.767 11.161-24.928 24.928-24.928h54.972z" fill="#fe4945"/><path d="m334.711 248.594h56.974c13.767 0 24.928-11.161 24.928-24.928v-43.901c0-13.767-11.161-24.928-24.928-24.928h-56.974z" fill="#fa185e"/><path d="m512 469.59v42.41h-103.29l-15-15-15 15h-245.42l-15-15-15 15h-103.29v-42.41c0-18.34 11.78-34.59 29.2-40.31l153.66-50.36h146.71v.14l153.23 50.22c17.42 5.72 29.2 21.97 29.2 40.31z" fill="#13cffe"/><path d="m512 469.59v42.41h-103.29l-15-15-15 15h-122.71v-133.08h73.57v.14l153.23 50.22c17.42 5.72 29.2 21.97 29.2 40.31z" fill="#28abf9"/><path d="m329.57 306.33v72.59s-37 36.57-73.57 36.57-73.14-36.57-73.14-36.57v-72.59z" fill="#ffb9ab"/><path d="m329.57 306.33v72.59s-37 36.57-73.57 36.57v-109.16z" fill="#e39e8d"/><path d="m350.72 152.72v31.48l-9.72 10.47h-170l-9.72-10.47v-31.48c0-26.16 10.6-49.84 27.74-66.98s40.82-27.74 66.98-27.74c52.31 0 94.72 42.41 94.72 94.72z" fill="#ffb81f"/><path d="m350.72 152.72v31.48l-9.72 10.47h-85v-136.67c52.31 0 94.72 42.41 94.72 94.72z" fill="#fc9b28"/><path d="m350.72 184.26v64.87c0 6.69-.61 13.22-1.78 19.54-.95 5.15-14.23 15-14.23 15s6.34 10.23 3.8 15c-16.25 30.62-47.11 51.29-82.51 51.29-26.16 0-49.84-11.28-66.98-29.53s-27.74-43.45-27.74-71.3v-64.87h50.52c17.01 0 32.52-6.46 44.2-17.06 13.26-12.04 21.59-29.41 21.59-48.72 0 36.33 29.45 65.78 65.78 65.78z" fill="#fccbc3"/><path d="m350.72 184.26v64.87c0 6.69-.61 13.22-1.78 19.54-.95 5.15-14.23 15-14.23 15s6.34 10.23 3.8 15c-16.25 30.62-47.11 51.29-82.51 51.29v-182.76c13.26-12.04 21.59-29.41 21.59-48.72 0 36.33 29.45 65.78 65.78 65.78z" fill="#ffb9ab"/><path d="m348.94 268.67c-1.97 10.71-5.54 20.8-10.43 30h-65.3v-30z" fill="#340d66"/><path d="m103.286 466h30v46h-30z" fill="#28abf9"/><path d="m378.714 466h30v46h-30z" fill="#318def"/></g></svg>