<svg height="512" width="512" xmlns="http://www.w3.org/2000/svg"><path d="M325 110h172c8.284 0 15-6.716 15-15V45c0-24.853-20.147-45-45-45H45C20.147 0 0 20.147 0 45v90c0 8.284 6.716 15 15 15h260z" fill="#8bbafc"/><path d="M275 150l50-40h172c8.284 0 15-6.716 15-15V45c0-24.853-20.147-45-45-45H256v150z" fill="#5393fb"/><path d="M320.891 98.287L275 135H0v332c0 24.853 20.147 45 45 45h422c24.853 0 45-20.147 45-45V95H330.262a15.001 15.001 0 00-9.371 3.287z" fill="#fbf3f3"/><path d="M512 467V95H330.262a14.996 14.996 0 00-9.37 3.287L275 135h-19v377h211c24.853 0 45-20.147 45-45z" fill="#dddcf3"/><g><path d="M155 210H75c-8.284 0-15-6.716-15-15s6.716-15 15-15h80c8.284 0 15 6.716 15 15s-6.716 15-15 15zM155 270H75c-8.284 0-15-6.716-15-15s6.716-15 15-15h80c8.284 0 15 6.716 15 15s-6.716 15-15 15z" fill="#dddcf3"/><g><path d="M80 82.5H60c-8.284 0-15-6.716-15-15s6.716-15 15-15h20c8.284 0 15 6.716 15 15s-6.716 15-15 15z" fill="#faf16c"/><path d="M160 82.5h-20c-8.284 0-15-6.716-15-15s6.716-15 15-15h20c8.284 0 15 6.716 15 15s-6.716 15-15 15z" fill="#de5ca3"/><path d="M240 82.5h-20c-8.284 0-15-6.716-15-15s6.716-15 15-15h20c8.284 0 15 6.716 15 15s-6.716 15-15 15z" fill="#a2e786"/></g></g><g><path d="M195 450c-8.284 0-15-6.716-15-15v-90c0-8.284 6.716-15 15-15s15 6.716 15 15v90c0 8.284-6.716 15-15 15z" fill="#a2e786"/></g><g><path d="M135 450c-8.284 0-15-6.716-15-15v-60c0-8.284 6.716-15 15-15s15 6.716 15 15v60c0 8.284-6.716 15-15 15z" fill="#de5ca3"/></g><g><path d="M75 450c-8.284 0-15-6.716-15-15v-30c0-8.284 6.716-15 15-15s15 6.716 15 15v30c0 8.284-6.716 15-15 15z" fill="#faf16c"/></g><g><path d="M340 180c-60.654 0-110 49.346-110 110 0 30.327 12.336 57.827 32.255 77.745L372 290z" fill="#de5ca3"/><path d="M256 219.065v141.87a110.723 110.723 0 006.255 6.81L372 290l-32-110c-33.646 0-63.806 15.189-84 39.065z" fill="#da1d81"/><path d="M340 180v134l110-24c0-60.654-49.346-110-110-110z" fill="#00cb75"/><path d="M262.255 367.745C282.173 387.664 309.673 400 340 400c60.654 0 110-49.346 110-110H340z" fill="#f2d231"/></g></svg>