<svg height="512" viewBox="0 0 511.182 511.182" width="512" xmlns="http://www.w3.org/2000/svg"><path d="M412.938 349.104c49.771 0 90.953-39.827 91.355-89.597.332-41.042-26.708-75.815-63.959-87.172a4.414 4.414 0 01-3.09-3.75c-4.476-41.291-39.426-73.438-81.908-73.438a82.37 82.37 0 00-24.949 3.847 4.442 4.442 0 01-5.083-1.819c-22.537-34.988-61.837-58.159-106.55-58.159-60.947 0-111.831 43.052-123.919 100.403a4.408 4.408 0 01-3.459 3.406c-47.584 9.38-83.531 51.17-83.875 101.424-.395 57.669 47.718 104.855 105.389 104.855z" fill="#badafb"/><path d="M79.917 262.003c.3-43.891 27.758-81.325 66.407-96.35 12.118-4.711 21.649-14.468 26.209-26.644 17.173-45.856 60.158-79.102 111.278-82.028-19.016-11.41-41.264-17.965-65.055-17.965-60.947 0-111.831 43.052-123.919 100.403a4.408 4.408 0 01-3.459 3.406c-47.584 9.38-83.53 51.169-83.874 101.423-.397 57.995 47.392 104.856 105.389 104.856h13.952c-28.325-18.864-47.176-50.917-46.928-87.101z" fill="#97c9f9"/><path d="M302.279 284.71v110.273h47.573c4.099 0 5.837 5.218 2.557 7.676l-90.132 67.544a9.94 9.94 0 01-11.923 0l-90.132-67.544c-3.28-2.458-1.542-7.676 2.557-7.676h47.573V284.71a8.638 8.638 0 018.638-8.638h74.65a8.638 8.638 0 018.639 8.638z" fill="#b1f5d5"/><path d="M266.363 449.357a147.715 147.715 0 01-32.853-92.88V278.58c0-.867.102-1.704.274-2.508h-14.793a8.638 8.638 0 00-8.638 8.638v110.273H162.78c-4.099 0-5.837 5.219-2.557 7.676l90.132 67.544a9.939 9.939 0 0011.922 0l13.041-9.772z" fill="#91f2c5"/><g><path d="M164.406 59.609c16.915-8.688 35.201-13.093 54.349-13.093 40.699 0 78.173 20.456 100.244 54.72 2.909 4.517 8.527 6.535 13.657 4.907a74.866 74.866 0 0122.68-3.496c38.319 0 70.326 28.695 74.451 66.744a11.897 11.897 0 008.359 10.119c31.473 9.595 54.272 36.886 58.086 69.527a7.501 7.501 0 008.319 6.579 7.5 7.5 0 006.579-8.319c-4.426-37.888-30.5-69.672-66.67-81.521-5.841-44.683-43.806-78.128-89.125-78.128a89.953 89.953 0 00-24.999 3.526c-24.997-37.399-66.535-59.657-111.582-59.657-21.555 0-42.146 4.963-61.202 14.75a7.5 7.5 0 106.854 13.342zM503.508 272.845a7.501 7.501 0 00-9.074 5.492c-4.36 17.731-14.802 33.808-29.4 45.271-14.781 11.605-33.282 17.997-52.096 17.997h-80.659c-4.143 0-7.5 3.358-7.5 7.5s3.357 7.5 7.5 7.5h80.659c22.157 0 43.948-7.528 61.358-21.199 17.223-13.521 29.547-32.517 34.704-53.486a7.5 7.5 0 00-5.492-9.075zM187.853 349.104a7.5 7.5 0 00-7.5-7.5h-67.462c-26.285 0-51.062-10.373-69.768-29.206-18.308-18.434-28.295-42.618-28.12-68.098.312-45.708 33.042-85.289 77.825-94.117a11.88 11.88 0 009.347-9.218c5.251-24.912 18.124-47.103 37.225-64.174a7.5 7.5 0 10-9.995-11.185c-20.991 18.759-35.3 43.02-41.472 70.272C37.213 146.845.36 192.074.003 244.197c-.202 29.505 11.333 57.479 32.478 78.771 21.542 21.69 50.1 33.636 80.411 33.636h67.462a7.5 7.5 0 007.499-7.5z"/><path d="M349.852 387.483h-40.073V284.71c0-8.898-7.239-16.138-16.138-16.138h-74.65c-8.898 0-16.138 7.239-16.138 16.138v41.997a7.5 7.5 0 0015 0V284.71c0-.627.51-1.138 1.138-1.138h74.65c.627 0 1.138.51 1.138 1.138v110.273a7.5 7.5 0 007.5 7.5h37.858l-82.358 61.719a2.453 2.453 0 01-2.926 0l-82.358-61.718h37.858a7.5 7.5 0 007.5-7.5V358.67a7.5 7.5 0 00-15 0v28.814H162.78a11.747 11.747 0 00-11.161 8.046 11.75 11.75 0 004.106 13.132l90.131 67.543a17.415 17.415 0 0010.459 3.461 17.43 17.43 0 0010.459-3.461l90.131-67.544a11.748 11.748 0 004.107-13.132 11.746 11.746 0 00-11.16-8.046zM207.394 231.152a7.5 7.5 0 007.5 7.5h82.844c4.143 0 7.5-3.358 7.5-7.5s-3.357-7.5-7.5-7.5h-82.844a7.5 7.5 0 00-7.5 7.5zM221.705 186.233a7.5 7.5 0 007.5 7.5h54.223c4.143 0 7.5-3.358 7.5-7.5s-3.357-7.5-7.5-7.5h-54.223a7.5 7.5 0 00-7.5 7.5zM273.887 148.813c4.143 0 7.5-3.358 7.5-7.5s-3.357-7.5-7.5-7.5h-35.143a7.5 7.5 0 000 15z"/></g></svg>