<svg height="512" width="512" xmlns="http://www.w3.org/2000/svg"><path d="M197.677 315.516C88.503 315.516 0 287.865 0 253.755v118.971c27.746 25.796 105.764 44.378 197.677 44.378s169.931-18.582 197.677-44.378V253.755c0 34.11-88.503 61.761-197.677 61.761z" fill="#80b4fb"/><path d="M106.316 308.534C43.135 298.227 0 277.566 0 253.755v118.971c17.853 16.599 56.524 30.209 106.316 37.805z" fill="#0290f4"/><path d="M197.677 111.243C88.503 111.243 0 98.182 0 64.072v98.209c0 34.109 88.503 61.76 197.677 61.76s197.677-27.651 197.677-61.76V64.072c0 34.11-88.503 47.171-197.677 47.171z" fill="#80b4fb"/><path d="M106.316 107.449C43.135 101.435 0 87.883 0 64.072v98.209c0 23.81 43.135 44.471 106.316 54.778z" fill="#0290f4"/><path d="M197.677 413.724C88.503 413.724 0 386.073 0 351.963v95.964c0 34.109 88.503 61.76 197.677 61.76s197.677-27.651 197.677-61.76v-95.964c0 34.11-88.503 61.761-197.677 61.761z" fill="#9dc6fb"/><path d="M106.316 406.742C43.135 396.435 0 375.775 0 351.964v95.964c0 23.811 43.135 44.471 106.316 54.778z" fill="#80b4fb"/><path d="M197.677 221.796C88.503 221.796 0 194.145 0 160.036V256c0 34.109 88.503 61.761 197.677 61.761S395.354 290.109 395.354 256v-95.964c0 34.109-88.503 61.76-197.677 61.76z" fill="#9dc6fb"/><path d="M106.316 214.814C43.135 204.507 0 183.847 0 160.036V256c0 23.811 43.135 44.471 106.316 54.778z" fill="#80b4fb"/><ellipse cx="197.677" cy="64.072" fill="#bed8fb" rx="197.677" ry="61.76"/><path d="M90.528 64.072c0-23.484 21.153-44.656 55.028-59.586C61.673 11.632 0 35.6 0 64.072c0 28.473 61.673 52.44 145.556 59.586-33.876-14.93-55.028-36.102-55.028-59.586z" fill="#9dc6fb"/><circle cx="395.354" cy="118.957" fill="#ff656f" r="116.645"/><path d="M339.961 118.957c0-53.822 36.456-99.122 86.019-112.574a116.776 116.776 0 00-30.626-4.071c-64.421 0-116.645 52.224-116.645 116.645s52.224 116.645 116.645 116.645c10.6 0 20.865-1.422 30.626-4.071-49.563-13.452-86.019-58.752-86.019-112.574z" fill="#ff4756"/><path d="M470.773 103.119h-16.305c-1.114 0-2.118-.711-2.448-1.775a59.016 59.016 0 00-4.143-9.995c-.52-.987-.315-2.2.474-2.989l11.532-11.532a5.156 5.156 0 000-7.291l-15.108-15.108a5.156 5.156 0 00-7.291 0l-11.532 11.532c-.789.789-2.002.994-2.989.474a58.934 58.934 0 00-9.995-4.143c-1.064-.33-1.775-1.334-1.775-2.449V43.538a5.156 5.156 0 00-5.156-5.156h-21.366a5.155 5.155 0 00-5.155 5.156v16.305c0 1.114-.711 2.118-1.775 2.449a58.934 58.934 0 00-9.995 4.143c-.987.52-2.201.315-2.989-.474l-11.532-11.532a5.156 5.156 0 00-7.291 0l-15.108 15.108a5.156 5.156 0 000 7.291l11.532 11.532c.789.789.994 2.002.474 2.989a58.934 58.934 0 00-4.143 9.995c-.33 1.064-1.334 1.775-2.448 1.775h-16.305a5.156 5.156 0 00-5.156 5.156v21.366a5.155 5.155 0 005.155 5.155h16.305c1.114 0 2.118.711 2.448 1.775a59.016 59.016 0 004.143 9.995c.52.987.315 2.2-.474 2.989l-11.532 11.532a5.156 5.156 0 000 7.291l15.108 15.108a5.156 5.156 0 007.291 0l11.532-11.532c.789-.789 2.002-.994 2.989-.474a58.934 58.934 0 009.995 4.143c1.064.33 1.775 1.334 1.775 2.449v16.305a5.156 5.156 0 005.156 5.156h21.366a5.155 5.155 0 005.155-5.155v-16.305c0-1.114.711-2.118 1.775-2.449a58.934 58.934 0 009.995-4.143c.987-.52 2.201-.315 2.989.474l11.532 11.532a5.156 5.156 0 007.291 0l15.108-15.108a5.156 5.156 0 000-7.291l-11.532-11.532c-.789-.789-.994-2.002-.474-2.989a58.934 58.934 0 004.143-9.995c.33-1.064 1.334-1.775 2.448-1.775h16.305a5.156 5.156 0 005.156-5.156v-21.366a5.154 5.154 0 00-5.155-5.156zm-75.419 46.15c-16.741 0-30.312-13.571-30.312-30.312s13.571-30.312 30.312-30.312 30.312 13.571 30.312 30.312-13.571 30.312-30.312 30.312z" fill="#ffe181"/><path d="M358.285 118.957c0-34.082 22.192-62.964 52.908-73.032v-2.387a5.156 5.156 0 00-5.155-5.156h-21.366a5.155 5.155 0 00-5.155 5.156v16.305c0 1.114-.711 2.118-1.775 2.449a58.934 58.934 0 00-9.995 4.143c-.987.52-2.201.315-2.989-.474l-11.532-11.532a5.156 5.156 0 00-7.291 0l-15.108 15.108a5.156 5.156 0 000 7.291l11.532 11.532c.789.789.994 2.002.474 2.989a59.02 59.02 0 00-4.144 9.995c-.33 1.064-1.334 1.775-2.448 1.775h-16.305a5.156 5.156 0 00-5.156 5.156v21.366a5.155 5.155 0 005.155 5.155h16.305c1.114 0 2.118.711 2.448 1.775a58.938 58.938 0 004.144 9.995c.52.987.315 2.2-.474 2.989l-11.532 11.532a5.156 5.156 0 000 7.291l15.108 15.108a5.154 5.154 0 007.291 0l11.532-11.532c.789-.789 2.002-.994 2.989-.474a58.934 58.934 0 009.995 4.143c1.064.33 1.775 1.334 1.775 2.449v16.305a5.156 5.156 0 005.155 5.156h21.366a5.155 5.155 0 005.155-5.155v-2.387c-30.715-10.07-52.907-38.952-52.907-73.034z" fill="#fec458"/></svg>