<svg xmlns="http://www.w3.org/2000/svg" viewBox="0 0 512 512"><path fill="#ffe100" d="M8.501 503.498h494.997V8.501H8.501z"/><path fill="#ffa800" d="M477.895 503.498h25.603V8.501h-25.603z"/><path fill="#fff" d="M8.501 503.498h25.603V8.501H8.501z"/><path d="M503.499 512H8.501A8.501 8.501 0 010 503.499V8.501A8.501 8.501 0 018.501 0h494.998A8.501 8.501 0 01512 8.501v494.998a8.501 8.501 0 01-8.501 8.501zM17.002 494.998h477.996V17.002H17.002v477.996z"/><path d="M392.551 469.328c-42.334 0-76.777-34.442-76.777-76.777a8.502 8.502 0 0117.002 0c0 32.959 26.815 59.775 59.775 59.775s59.775-26.815 59.775-59.775-26.815-59.775-59.775-59.775c-42.334 0-76.777-34.442-76.777-76.777s34.442-76.776 76.777-76.776 76.777 34.442 76.777 76.777a8.501 8.501 0 11-17.002 0c0-32.96-26.815-59.775-59.775-59.775S332.776 223.04 332.776 256c0 32.959 26.815 59.775 59.775 59.775 42.334 0 76.777 34.442 76.777 76.777s-34.443 76.776-76.777 76.776zM213.328 469.328c-42.334 0-76.777-34.442-76.777-76.777a8.501 8.501 0 1117.002 0c0 32.959 26.814 59.775 59.775 59.775s59.775-26.815 59.775-59.775V187.724a8.501 8.501 0 1117.002 0V392.55c-.002 42.335-34.443 76.778-76.777 76.778z"/></svg>