<svg height="512" viewBox="0 0 511.982 511.982" width="512" xmlns="http://www.w3.org/2000/svg"><path d="M369.78 401.561H53.359c-25.327 0-45.859-20.532-45.859-45.859v-289.7c0-25.327 20.532-45.859 45.859-45.859H369.78c25.327 0 45.859 20.532 45.859 45.859v289.7c0 25.328-20.532 45.859-45.859 45.859z" fill="#f9f6f9"/><path d="M70.569 401.555H53.364c-25.334 0-45.864-20.53-45.864-45.856V66.003c0-25.326 20.53-45.864 45.864-45.864h17.204c-25.334 0-45.864 20.539-45.864 45.864V355.7c0 25.325 20.53 45.855 45.865 45.855z" fill="#dddaec"/><path d="M39.5 356.804V113.346c0-7.046 5.712-12.758 12.758-12.758h318.624c7.046 0 12.758 5.712 12.758 12.758v243.458c0 7.046-5.712 12.758-12.758 12.758H52.258c-7.046-.001-12.758-5.712-12.758-12.758z" fill="#bed8fb"/><g fill="#e28086"><circle cx="62.157" cy="60.83" r="15.02"/><circle cx="109.907" cy="60.83" r="15.02"/></g><g><path d="M496.747 484.1c-10.337 10.337-27.097 10.337-37.435 0l-74.557-74.557 37.435-37.435 74.557 74.557c10.337 10.338 10.337 27.098 0 37.435z" fill="#b48e84"/><path d="M502.883 474.474a26.108 26.108 0 01-6.134 9.626c-10.341 10.341-27.097 10.341-37.437 0l-74.557-74.557 15.767-15.767 74.557 74.557c7.52 7.519 18.438 9.576 27.804 6.141z" fill="#b28968"/><circle cx="350.689" cy="338.041" fill="#ffe07d" r="103.845"/><path d="M361.387 441.338c-3.511.367-7.082.551-10.695.551-57.353 0-103.847-46.495-103.847-103.847 0-57.343 46.495-103.837 103.847-103.837 3.613 0 7.184.184 10.695.551-52.332 5.347-93.163 49.556-93.163 103.286 0 53.739 40.831 97.948 93.163 103.296z" fill="#ffd064"/><circle cx="350.689" cy="338.041" fill="#dce6fd" r="67.547"/><path d="M360.355 404.895a67.178 67.178 0 01-9.674.694c-37.3 0-67.538-30.238-67.538-67.548 0-37.3 30.238-67.538 67.538-67.538 3.286 0 6.521.235 9.674.694-32.728 4.684-57.873 32.83-57.873 66.844-.001 34.024 25.145 62.17 57.873 66.854z" fill="#c8dafd"/><path d="M445.789 380.515l-52.628 52.628c-7.113 7.113-7.113 18.647 0 25.76 7.113 7.113 18.647 7.113 25.76 0l52.628-52.628c7.113-7.113 7.113-18.647 0-25.76-7.113-7.114-18.646-7.114-25.76 0z" fill="#e28086"/><path d="M432.677 437.6c4.662 0 9.323-1.775 12.881-5.333l-26.635 26.635c-3.558 3.558-8.219 5.333-12.881 5.333s-9.323-1.775-12.881-5.333c-7.115-7.115-7.115-18.646 0-25.762l26.635-26.635c-7.115 7.115-7.115 18.646 0 25.762a18.154 18.154 0 0012.881 5.333z" fill="#dd636e"/></g><g><path d="M62.157 83.349c12.417 0 22.52-10.102 22.52-22.52s-10.102-22.52-22.52-22.52-22.52 10.102-22.52 22.52 10.102 22.52 22.52 22.52zm0-30.039c4.146 0 7.52 3.373 7.52 7.52s-3.373 7.52-7.52 7.52-7.52-3.373-7.52-7.52 3.373-7.52 7.52-7.52zM109.907 83.349c12.417 0 22.52-10.102 22.52-22.52s-10.102-22.52-22.52-22.52-22.52 10.102-22.52 22.52 10.103 22.52 22.52 22.52zm0-30.039c4.146 0 7.52 3.373 7.52 7.52s-3.373 7.52-7.52 7.52-7.52-3.373-7.52-7.52 3.374-7.52 7.52-7.52zM87.284 208.265c6.664-3.7 10.804-10.809 10.804-18.553v-53.958a7.5 7.5 0 00-15 0v53.958c0 2.298-1.182 4.382-3.085 5.438-3.603 2.002-7.659-1.762-7.928-2.018a7.5 7.5 0 00-10.59 10.624c3.131 3.151 9.191 7.042 16.261 7.042 3.043 0 6.274-.721 9.538-2.533zM207.672 210.766h.033c.001 0 18.032-.08 23.002-.08 14.156 0 25.672-11.517 25.672-25.672 0-8.372-4.029-15.818-10.249-20.508a22.894 22.894 0 004.186-13.217c0-12.701-10.333-23.034-23.034-23.034h-19.61a7.5 7.5 0 00-7.5 7.5v67.511a7.501 7.501 0 007.5 7.5zm23.035-15.08c-2.844 0-9.954.026-15.535.048V174.36l5.052-.019h10.484c5.884 0 10.672 4.788 10.672 10.672-.001 5.885-4.789 10.673-10.673 10.673zm-3.425-52.431c4.43 0 8.034 3.604 8.034 8.034s-3.604 8.035-8.034 8.035c-1.431 0-4.115.008-7.048.018h-5.062v-16.087zM107.874 169.51c0 22.749 18.507 41.256 41.256 41.256 22.748 0 41.255-18.507 41.255-41.256s-18.507-41.255-41.255-41.255c-22.749 0-41.256 18.507-41.256 41.255zm41.256-26.255c14.477 0 26.255 11.778 26.255 26.255 0 14.478-11.778 26.256-26.255 26.256-14.478 0-26.256-11.778-26.256-26.256 0-14.477 11.778-26.255 26.256-26.255z"/><path d="M502.048 441.361l-27.489-27.489 2.294-2.294c10.026-10.026 10.026-26.34 0-36.367-5.178-5.178-12.033-7.674-18.833-7.504 4.361-15.75 5.206-32.296 2.386-48.666-3.914-22.72-14.629-43.376-30.988-59.735a113.709 113.709 0 00-6.277-5.819V66.002c0-29.423-23.938-53.36-53.36-53.36H53.36C23.937 12.642 0 36.579 0 66.002v289.7c0 29.423 23.937 53.36 53.36 53.36h211.574a113.586 113.586 0 007.022 7.706c16.358 16.358 37.014 27.074 59.733 30.989a112.37 112.37 0 0019.114 1.641c10 0 19.924-1.35 29.551-4.014-.167 6.796 2.329 13.647 7.504 18.822 4.857 4.857 11.315 7.532 18.184 7.532s13.327-2.675 18.184-7.532l2.29-2.29 27.489 27.489c6.623 6.623 15.322 9.935 24.022 9.935s17.399-3.312 24.022-9.935c13.244-13.245 13.244-34.798-.001-48.044zM53.36 394.062c-21.152 0-38.36-17.208-38.36-38.36v-289.7c0-21.152 17.208-38.36 38.36-38.36h316.42c21.152 0 38.36 17.208 38.36 38.36v176.615a109.969 109.969 0 00-17-8.372V113.337c0-11.166-9.089-20.25-20.26-20.25H139.33a7.5 7.5 0 000 15h231.55c2.9 0 5.26 2.355 5.26 5.25v116.274a112.214 112.214 0 00-25.451-2.912c-29.742.001-57.703 11.583-78.733 32.614-21.03 21.029-32.611 48.99-32.61 78.73 0 8.175.881 16.214 2.587 24.014H52.26c-2.9 0-5.26-2.36-5.26-5.26v-243.46c0-2.895 2.359-5.25 5.26-5.25h57.07a7.5 7.5 0 000-15H52.26c-11.171 0-20.26 9.084-20.26 20.25v243.46c0 11.171 9.088 20.26 20.26 20.26h194.092a109.895 109.895 0 008.071 17.005zm229.202 12.099c-18.195-18.195-28.216-42.386-28.216-68.118-.001-25.733 10.02-49.927 28.216-68.123 18.197-18.197 42.392-28.219 68.127-28.22s49.927 10.019 68.122 28.213c27.971 27.971 35.95 70.77 20.077 106.897l-49.435 49.435c-36.125 15.869-78.921 7.886-106.891-20.084zm123.48 50.577a10.646 10.646 0 01-7.577-3.139c-4.178-4.178-4.178-10.976 0-15.153l52.627-52.628c4.178-4.179 10.976-4.178 15.153 0 4.178 4.178 4.178 10.976 0 15.154l-52.627 52.627a10.642 10.642 0 01-7.576 3.139zm85.399 22.061c-7.397 7.397-19.434 7.397-26.831 0l-27.489-27.489 26.831-26.831 27.489 27.489c7.397 7.397 7.397 19.433 0 26.831z"/><path d="M416.971 373.27a7.5 7.5 0 10-13.242-7.046 60.176 60.176 0 01-10.582 14.28c-11.342 11.342-26.422 17.588-42.461 17.588s-31.115-6.246-42.453-17.588c-11.342-11.342-17.588-26.422-17.588-42.462s6.246-31.12 17.589-42.463c11.337-11.341 26.413-17.587 42.452-17.587s31.119 6.246 42.461 17.588c11.857 11.858 18.247 28.266 17.53 45.016a7.5 7.5 0 007.172 7.814c4.142.194 7.637-3.034 7.814-7.172.896-20.937-7.09-41.444-21.91-56.264-14.175-14.175-33.021-21.981-53.067-21.981s-38.89 7.807-53.059 21.981c-14.175 14.175-21.982 33.022-21.982 53.068 0 20.047 7.807 38.894 21.981 53.067 14.17 14.176 33.014 21.982 53.06 21.982s38.892-7.806 53.067-21.981a75.11 75.11 0 0013.218-17.84zM174.214 246.057H74.452a7.5 7.5 0 000 15h99.762a7.5 7.5 0 000-15zM174.214 277.981H74.452a7.5 7.5 0 000 15h99.762a7.5 7.5 0 000-15zM174.214 309.905H74.452a7.5 7.5 0 000 15h99.762a7.5 7.5 0 000-15z"/></g></svg>