<svg height="512" width="512" xmlns="http://www.w3.org/2000/svg"><rect fill="#57a4ff" height="480" rx="40" width="272" x="120" y="16"/><path d="M304 48h-96l-8-32h112z" fill="#57565c"/><g fill="#e0e0e2"><path d="M217.167 308.674L173.999 288l3.674 47.722zM294.833 203.326L338.001 224l-3.674-47.722z"/></g><g><path d="M352 8H160a48.051 48.051 0 00-48 48v400a48.051 48.051 0 0048 48h192a48.051 48.051 0 0048-48V56a48.051 48.051 0 00-48-48zm-50.25 16l-4 16h-83.5l-4-16zM384 456a32.042 32.042 0 01-32 32H160a32.042 32.042 0 01-32-32V56a32.042 32.042 0 0132-32h33.75l6.49 25.94A8 8 0 00208 56h96a8 8 0 007.76-6.06L318.25 24H352a32.042 32.042 0 0132 32z"/><path d="M296 464h-80a8 8 0 000 16h80a8 8 0 000-16zM344 248a8 8 0 00-8 8 80.091 80.091 0 01-80 80 79.218 79.218 0 01-51.417-18.708l12.584-8.618L174 288l3.674 47.722 13.3-9.107A95.094 95.094 0 00256 352a96.108 96.108 0 0096-96 8 8 0 00-8-8zM256 176a79.222 79.222 0 0151.417 18.708l-12.584 8.618L338 224l-3.674-47.722-13.3 9.106A95.1 95.1 0 00256 160a96.108 96.108 0 00-96 96 8 8 0 0016 0 80.091 80.091 0 0180-80z"/></g></svg>