<svg xmlns="http://www.w3.org/2000/svg" viewBox="0 0 512.548 512.548"><path d="M266.941 0c-5.891 0-10.667 4.776-10.667 10.667v234.667c0 5.891 4.776 10.667 10.667 10.667h234.667c5.891 0 10.667-4.776 10.667-10.667C512.121 109.903 402.371.153 266.941 0z" fill="#ffc107"/><path d="M382.034 452.117L234.941 263.019V32c0-5.891-4.776-10.667-10.667-10.667-123.52 0-224 110.059-224 245.333C.427 402.097 110.177 511.847 245.607 512a182.25 182.25 0 00134.763-45.099 10.666 10.666 0 001.664-14.784z" fill="#2196f3"/><path d="M501.607 277.333H288.274c-5.891.001-10.666 4.778-10.664 10.669 0 2.437.835 4.8 2.366 6.696l138.667 171.669a10.67 10.67 0 007.552 3.947h.747a10.668 10.668 0 007.275-2.859 246.275 246.275 0 0078.059-179.456c-.002-5.89-4.777-10.666-10.669-10.666z" fill="#4caf50"/></svg>