<svg height="512" width="512" xmlns="http://www.w3.org/2000/svg"><linearGradient id="a" gradientUnits="userSpaceOnUse" x1="256" x2="256" y1="512" y2="0"><stop offset="0" stop-color="#addcff"/><stop offset=".503" stop-color="#eaf6ff"/><stop offset="1" stop-color="#eaf6ff"/></linearGradient><linearGradient id="b" gradientUnits="userSpaceOnUse" x1="256" x2="256" y1="105.009" y2="407"><stop offset="0" stop-color="#5558ff"/><stop offset="1" stop-color="#00c0ff"/></linearGradient><circle cx="256" cy="256" fill="url(#a)" r="256"/><path d="M220.463 140.538h71.075c9.814 0 17.769-7.954 17.769-17.764v-8.882a8.883 8.883 0 00-8.884-8.882H211.58a8.883 8.883 0 00-8.884 8.882v8.882c-.002 9.809 7.953 17.764 17.767 17.764zm71.074 222.052c4.893 0 8.884-3.981 8.884-8.882s-3.991-8.882-8.884-8.882-8.884 3.981-8.884 8.882 3.991 8.882 8.884 8.882zm-71.074-88.821c-4.893 0-8.884 3.981-8.884 8.882s3.991 8.882 8.884 8.882 8.884-3.981 8.884-8.882-3.991-8.882-8.884-8.882zm142.149-150.996h-35.537c0 19.594-15.947 35.528-35.537 35.528h-71.075c-19.591 0-35.537-15.934-35.537-35.528h-35.537a8.878 8.878 0 00-8.884 8.882v266.462a8.878 8.878 0 008.884 8.882h213.224a8.878 8.878 0 008.884-8.882V131.656a8.88 8.88 0 00-8.885-8.883zm-159.918 79.939h8.884v-8.882a8.878 8.878 0 018.884-8.882 8.878 8.878 0 018.884 8.882v8.882h8.884c4.911 0 8.884 3.973 8.884 8.882s-3.974 8.882-8.884 8.882h-8.884v8.882a8.878 8.878 0 01-8.884 8.882 8.878 8.878 0 01-8.884-8.882v-8.882h-8.884c-4.911 0-8.884-3.973-8.884-8.882s3.973-8.882 8.884-8.882zm35.537 159.878h-8.884v8.882a8.878 8.878 0 01-8.884 8.882 8.878 8.878 0 01-8.884-8.882v-8.882h-8.884c-4.911 0-8.884-3.973-8.884-8.882s3.974-8.882 8.884-8.882h8.884v-8.882a8.878 8.878 0 018.884-8.882 8.878 8.878 0 018.884 8.882v8.882h8.884c4.911 0 8.884 3.973 8.884 8.882s-3.973 8.882-8.884 8.882zm79.959-133.232a8.878 8.878 0 01-8.884 8.882 8.878 8.878 0 01-8.884-8.882v-14.086l-55.977 55.963c.506 1.058.904 2.161 1.27 3.291 28.248 3.445 50.505 25.695 53.95 53.937 10.707 3.46 18.526 13.403 18.526 25.245 0 14.694-11.956 26.646-26.653 26.646s-26.653-11.953-26.653-26.646c0-11.303 7.102-20.923 17.058-24.789-3.026-18.836-17.838-33.649-36.685-36.675-3.866 9.952-13.489 17.054-24.795 17.054-14.697 0-26.653-11.953-26.653-26.646s11.956-26.646 26.653-26.646c4.103 0 7.944 1.008 11.419 2.67l55.977-55.963h-14.09c-4.911 0-8.884-3.973-8.884-8.882s3.974-8.882 8.884-8.882h35.537c3.981 0 8.884 3.557 8.884 8.882z" fill="url(#b)"/></svg>