<svg height="512pt" viewBox="0 0 512 512" width="512pt" xmlns="http://www.w3.org/2000/svg"><path d="M437 146h-91v90H126v110c0 11.047 8.953 20 20 20v71c0 41.422 33.578 75 75 75h70c41.422 0 75-33.578 75-75v-41h-89.574c-8.078 0-15.028-6.207-15.41-14.273C260.609 373.109 267.476 366 276 366h161c41.422 0 75-33.578 75-75v-70c0-41.422-33.578-75-75-75zm0 0" fill="#feef55"/><path d="M437 146h-91v90h-90v276h35c41.422 0 75-33.578 75-75v-41h-89.574c-8.078 0-15.028-6.207-15.41-14.273C260.609 373.109 267.476 366 276 366h161c41.422 0 75-33.578 75-75v-70c0-41.422-33.578-75-75-75zm0 0" fill="#fedc00"/><path d="M186 256h140c22.09 0 40-17.91 40-40V75c0-41.355-33.645-75-75-75h-70c-41.355 0-75 33.645-75 75v41h90c8.285 0 15 6.715 15 15s-6.715 15-15 15H75c-41.355 0-75 33.645-75 75v70c0 41.355 33.645 75 75 75h71v-70c0-22.09 17.91-40 40-40zm0 0" fill="#78e0ea"/><path d="M291 0h-35v256h70c22.09 0 40-17.91 40-40V75c0-41.355-33.645-75-75-75zm0 0" fill="#3cccdd"/><path d="M236 61c0 8.285-6.715 15-15 15s-15-6.715-15-15 6.715-15 15-15 15 6.715 15 15zm0 0" fill="#5a5a6e"/><path d="M306 451c0 8.285-6.715 15-15 15s-15-6.715-15-15 6.715-15 15-15 15 6.715 15 15zm0 0" fill="#46465a"/></svg>