<svg height="512" width="512" xmlns="http://www.w3.org/2000/svg"><path d="M414.33 158.33V170h-30v-11.67C384.33 87.57 326.76 30 256 30S127.67 87.57 127.67 158.33V170h-30v-11.67C97.67 71.03 168.69 0 256 0s158.33 71.03 158.33 158.33z" fill="#393e9f"/><path d="M414.33 158.33V170h-30v-11.67C384.33 87.57 326.76 30 256 30V0c87.31 0 158.33 71.03 158.33 158.33z" fill="#340d66"/><path d="M175.287 248.594h-54.972c-13.767 0-24.928-11.161-24.928-24.928v-43.901c0-13.767 11.161-24.928 24.928-24.928h54.972z" fill="#fe4945"/><path d="M334.711 248.594h56.974c13.767 0 24.928-11.161 24.928-24.928v-43.901c0-13.767-11.161-24.928-24.928-24.928h-56.974z" fill="#fa185e"/><path d="M512 469.59V512H408.71l-15-15-15 15H133.29l-15-15-15 15H0v-42.41c0-18.34 11.78-34.59 29.2-40.31l153.66-50.36h146.71v.14l153.23 50.22c17.42 5.72 29.2 21.97 29.2 40.31z" fill="#13cffe"/><path d="M512 469.59V512H408.71l-15-15-15 15H256V378.92h73.57v.14l153.23 50.22c17.42 5.72 29.2 21.97 29.2 40.31z" fill="#28abf9"/><path d="M329.57 306.33v72.59s-37 36.57-73.57 36.57-73.14-36.57-73.14-36.57v-72.59z" fill="#ffb9ab"/><path d="M329.57 306.33v72.59s-37 36.57-73.57 36.57V306.33z" fill="#e39e8d"/><path d="M350.72 152.72v31.48L341 194.67H171l-9.72-10.47v-31.48c0-26.16 10.6-49.84 27.74-66.98S229.84 58 256 58c52.31 0 94.72 42.41 94.72 94.72z" fill="#ffb81f"/><path d="M350.72 152.72v31.48L341 194.67h-85V58c52.31 0 94.72 42.41 94.72 94.72z" fill="#fc9b28"/><path d="M350.72 184.26v64.87c0 6.69-.61 13.22-1.78 19.54-.95 5.15-14.23 15-14.23 15s6.34 10.23 3.8 15c-16.25 30.62-47.11 51.29-82.51 51.29-26.16 0-49.84-11.28-66.98-29.53s-27.74-43.45-27.74-71.3v-64.87h50.52c17.01 0 32.52-6.46 44.2-17.06 13.26-12.04 21.59-29.41 21.59-48.72 0 36.33 29.45 65.78 65.78 65.78z" fill="#fccbc3"/><path d="M350.72 184.26v64.87c0 6.69-.61 13.22-1.78 19.54-.95 5.15-14.23 15-14.23 15s6.34 10.23 3.8 15c-16.25 30.62-47.11 51.29-82.51 51.29V167.2c13.26-12.04 21.59-29.41 21.59-48.72 0 36.33 29.45 65.78 65.78 65.78z" fill="#ffb9ab"/><path d="M348.94 268.67c-1.97 10.71-5.54 20.8-10.43 30h-65.3v-30z" fill="#340d66"/><path d="M103.286 466h30v46h-30z" fill="#28abf9"/><path d="M378.714 466h30v46h-30z" fill="#318def"/></svg>