<svg height="512" viewBox="0 0 64 64" width="512" xmlns="http://www.w3.org/2000/svg"><path d="M16 58v4H8v-4.25c.64.16 1.31.25 2 .25h2z" fill="#ff826e"/><path d="M15 50h-.17c-.53 0-1.04.21-1.42.59L12 52v6h-2c-.69 0-1.36-.09-2-.25-3.45-.89-6-4.02-6-7.75v-1c0-4.97 2.02-9.47 5.27-12.73a18.02 18.02 0 0110.91-5.18L20 42h-2c-1.1 0-2 .9-2 2v6.27c-.29-.17-.64-.27-1-.27zM24 36l4 6h-8zM40 50h-2c-1.1 0-2 .9-2 2v2c0 1.1.9 2 2 2-1.1 0-2 .9-2 2v2c0 1.1.9 2 2 2h-6V44c0-1.1-.9-2-2-2h-2l1.82-10.9c6.34.63 11.71 4.56 14.38 10.04-.13.26-.2.55-.2.86v2c0 1.1.9 2 2 2-1.1 0-2 .9-2 2v2z" fill="#ff826e"/><path d="M29.82 31.1L28 42l-4-6 4-5c.61 0 1.22.03 1.82.1zM20 31l4 5-4 6-1.82-10.91c.6-.06 1.21-.09 1.82-.09z" fill="#fc6e51"/><path d="M14 9.47V15h-1c-.73 0-1.4.26-1.92.7A9.39 9.39 0 0110 11.33C10 6.18 14.18 2 19.33 2h8.79c1.2 0 2.36.48 3.21 1.33l.7.7c.63.63 1.44 1.06 2.32 1.24A4.54 4.54 0 0138 9.72V11c0 1.64-.4 3.23-1.14 4.65A2.96 2.96 0 0035 15h-1v-.53c0-1.36-1.11-2.47-2.47-2.47H16.58c-.38 0-.76-.09-1.1-.26l-.11-.06A2.466 2.466 0 0114 9.47z" fill="#656d78"/><path d="M58 8h4v22h-4zM50 12h4v18h-4zM42 16h4v14h-4z" fill="#ffeaa7"/><path d="M48 56h2c1.1 0 2 .9 2 2v2c0 1.1-.9 2-2 2H38c-1.1 0-2-.9-2-2v-2c0-1.1.9-2 2-2h6zM48 46h10c1.1 0 2 .9 2 2v2c0 1.1-.9 2-2 2h-6c0-1.1-.9-2-2-2h-6v-2c0-1.1.9-2 2-2zM48 34h10c1.1 0 2 .9 2 2v2c0 1.1-.9 2-2 2H46c-1.1 0-2-.9-2-2v-2c0-1.1.9-2 2-2z" fill="#ffc729"/><path d="M48 40h10c1.1 0 2 .9 2 2v2c0 1.1-.9 2-2 2H46c-1.1 0-2-.9-2-2v-2c0-.31.07-.6.2-.86.32-.67 1.01-1.14 1.8-1.14zM56 52h2c1.1 0 2 .9 2 2v2c0 1.1-.9 2-2 2h-6c0-1.1-.9-2-2-2 1.1 0 2-.9 2-2v-2z" fill="#fcd770"/><path d="M48 50h2c1.1 0 2 .9 2 2v2c0 1.1-.9 2-2 2H38c-1.1 0-2-.9-2-2v-2c0-1.1.9-2 2-2h6z" fill="#fcd770"/><path d="M32 44v18H16v-4h1a2.996 2.996 0 002.12-5.12c-.54-.54-1.29-.88-2.12-.88 0-.55-.22-1.05-.59-1.41-.12-.13-.26-.23-.41-.32V44c0-1.1.9-2 2-2h12c1.1 0 2 .9 2 2z" fill="#aab2bd"/><path d="M14.83 50H15c.36 0 .71.1 1 .27.15.09.29.19.41.32.37.36.59.86.59 1.41.83 0 1.58.34 2.12.88S20 54.17 20 55c0 1.66-1.34 3-3 3h-5v-6l1.41-1.41c.38-.38.89-.59 1.42-.59zM27 29l1 2-4 5-4-5 1-2zM36.86 15.65A2.993 2.993 0 0138 18c0 1.66-1.34 3-3 3h-1v-6h1c.7 0 1.35.24 1.86.65zM20 12h8c-1.1 0-2 .9-2 2v1h-4v-1c0-1.1-.9-2-2-2zM34 21v2c0 3.31-2.69 6-6 6h-8c-3.31 0-6-2.69-6-6v-7c0 1.1.9 2 2 2h4c1.1 0 2-.9 2-2v-1h4v1c0 1.1.9 2 2 2h4c1.1 0 2-.9 2-2zM14 16v5h-1c-.83 0-1.58-.34-2.12-.88S10 18.83 10 18c0-.93.42-1.76 1.08-2.3.52-.44 1.19-.7 1.92-.7h1z" fill="#f0d0b4"/><path d="M20 46h8v4h-8zM34 15v1c0 1.1-.9 2-2 2h-4c-1.1 0-2-.9-2-2v-2c0-1.1.9-2 2-2h3.53c1.36 0 2.47 1.11 2.47 2.47zM14 15V9.47c0 .94.53 1.79 1.37 2.21l.11.06c.34.17.72.26 1.1.26H20c1.1 0 2 .9 2 2v2c0 1.1-.9 2-2 2h-4c-1.1 0-2-.9-2-2z" fill="#69d6f4"/><g><path d="M24 26a5.153 5.153 0 004.897-3.53l.051-.154-1.897-.633-.051.155C26.569 23.131 25.363 24 24 24s-2.569-.869-3-2.163l-.051-.154-1.897.633.051.153A5.153 5.153 0 0024 26zM29 45H19v6h10zm-2 4h-6v-2h6zM23 53h2v2h-2zM27 53h2v2h-2zM27 57h2v2h-2zM23 57h2v2h-2z"/><path d="M58 33H46c-1.654 0-3 1.346-3 3v1.322c-3.428-4.431-8.636-7.13-14.377-7.312l-.02-.04C32.181 29.662 35 26.656 35 23v-1c2.206 0 4-1.794 4-4a3.96 3.96 0 00-.956-2.564C38.659 14.04 39 12.527 39 11V9.724a5.559 5.559 0 00-4.456-5.435 3.535 3.535 0 01-1.81-.969l-.697-.697A5.506 5.506 0 0028.119 1h-8.785C13.636 1 9 5.636 9 11.333c0 1.435.321 2.858.9 4.171A3.958 3.958 0 009 18c0 2.206 1.794 4 4 4h.002L13 23c0 3.656 2.819 6.662 6.397 6.969l-.02.041C9.188 30.34 1 38.732 1 49v1c0 3.909 2.51 7.235 6 8.475V63h43c1.654 0 3-1.346 3-3v-1h5c1.654 0 3-1.346 3-3v-2a2.98 2.98 0 00-.78-2c.48-.532.78-1.229.78-2v-2a2.98 2.98 0 00-.78-2c.48-.532.78-1.229.78-2v-2a2.98 2.98 0 00-.78-2c.48-.532.78-1.229.78-2v-2c0-1.654-1.346-3-3-3zm-13 3c0-.551.449-1 1-1h1v2h2v-2h2v2h2v-2h2v2h2v-2h1c.551 0 1 .449 1 1v2c0 .551-.449 1-1 1H46c-.551 0-1-.449-1-1zm14 6v2c0 .551-.449 1-1 1H46c-.551 0-1-.449-1-1v-2c0-.551.449-1 1-1h1v2h2v-2h2v2h2v-2h2v2h2v-2h1c.551 0 1 .449 1 1zm0 6v2c0 .551-.449 1-1 1h-5.184A2.996 2.996 0 0050 49h-1v-2h2v2h2v-2h2v2h2v-2h1c.551 0 1 .449 1 1zm-21 7c-.551 0-1-.449-1-1v-2c0-.551.449-1 1-1h1v2h2v-2h2v2h2v-2h2v2h2v-2h1c.551 0 1 .449 1 1v2c0 .551-.449 1-1 1zm7-7c0-.551.449-1 1-1h1v2h-2zm-1.887-6.772A2.981 2.981 0 0043 42v2c0 .771.301 1.468.78 2a2.976 2.976 0 00-.78 2v1h-2v-7h-2v7h-1c-1.654 0-3 1.346-3 3v2c0 .771.301 1.468.78 2a2.976 2.976 0 00-.78 2v2c0 .352.072.686.184 1H33V44c0-1.654-1.346-3-3-3h-.82l1.465-8.792c5.337.824 9.946 4.116 12.468 9.02zM13 52.414l1.121-1.121a.996.996 0 01.708-.293H15c.551 0 1 .449 1 1v1h1c1.103 0 2 .897 2 2s-.897 2-2 2h-4zM21 55a4.006 4.006 0 00-3.14-3.907 2.997 2.997 0 00-.86-1.316V44c0-.551.449-1 1-1h12c.551 0 1 .449 1 1v17H17v-2c2.206 0 4-1.794 4-4zm5.382-25l.438.875L24 34.399l-2.819-3.524.437-.875zM24 37.803L26.131 41h-4.263zm1.238-1.749l3.23-4.037.182.006-1.22 7.319zm-5.7-4.031l3.224 4.03-2.192 3.288-1.218-7.308c.063-.003.124-.008.186-.01zM25 14h-2c0-.352-.072-.686-.184-1h2.369A2.943 2.943 0 0025 14zm-4 0v2c0 .551-.449 1-1 1h-4c-.551 0-1-.449-1-1v-3.382l.03.015a3.49 3.49 0 001.553.367H20c.551 0 1 .449 1 1zm6 0c0-.551.449-1 1-1h3.528c.811 0 1.472.661 1.472 1.472V16c0 .551-.449 1-1 1h-4c-.551 0-1-.449-1-1zm8 6v-4c1.103 0 2 .897 2 2s-.897 2-2 2zM19.333 3h8.785c.946 0 1.835.369 2.505 1.038l.697.697a5.526 5.526 0 002.832 1.516A3.55 3.55 0 0137 9.724V11a9.026 9.026 0 01-.617 3.261A3.952 3.952 0 0035 14h-.048c-.233-1.69-1.672-3-3.424-3H16.583c-.227 0-.455-.054-.658-.156l-.112-.056A1.462 1.462 0 0115 9.472C15 8.661 15.661 8 16.472 8H18V6h-1.528a3.478 3.478 0 00-3.44 3l-.012 5H13c-.516 0-1.005.106-1.458.284A8.352 8.352 0 0111 11.333C11 6.738 14.738 3 19.333 3zM13 20c-1.103 0-2-.897-2-2s.897-2 2-2c0 .053.013.103.016.156L13.007 20zm2 3v-4.184c.314.112.648.184 1 .184h4c1.654 0 3-1.346 3-3h2c0 1.654 1.346 3 3 3h4c.352 0 .686-.072 1-.184V23c0 2.757-2.243 5-5 5h-8c-2.757 0-5-2.243-5-5zM3 50v-1c0-8.473 6.237-15.497 14.357-16.773L18.82 41H18c-1.654 0-3 1.346-3 3v5h-.171c-.801 0-1.555.312-2.122.879l-1.096 1.096A3.005 3.005 0 019 48v-6H7v6a5.01 5.01 0 004 4.899V57h-1c-3.86 0-7-3.14-7-7zm6 8.941c.329.037.662.059 1 .059h5v2H9zM51 60c0 .551-.449 1-1 1H38c-.551 0-1-.449-1-1v-2c0-.551.449-1 1-1h1v2h2v-2h2v2h2v-2h2v2h2v-2h1c.551 0 1 .449 1 1zm8-4c0 .551-.449 1-1 1h-5.184a2.972 2.972 0 00-.596-1c.48-.532.78-1.229.78-2v-1h2v2h2v-2h1c.551 0 1 .449 1 1z"/><path d="M57 7v22h-2V11h-6v18h-2V15h-6v16h22V7zM45 29h-2V17h2zm6-16h2v16h-2zm10 16h-2V9h2z"/></g></svg>