<?xml version="1.0" encoding="iso-8859-1"?>
<!-- Generator: Adobe Illustrator 19.0.0, SVG Export Plug-In . SVG Version: 6.00 Build 0)  -->
<svg version="1.1" id="Capa_1" xmlns="http://www.w3.org/2000/svg" xmlns:xlink="http://www.w3.org/1999/xlink" x="0px" y="0px"
	 viewBox="0 0 429.591 429.591" style="enable-background:new 0 0 429.591 429.591;" xml:space="preserve">
<rect x="359.691" y="159.096" style="fill:#00EFD1;" width="56.3" height="238.4"/>
<rect x="244.291" y="231.296" style="fill:#FEDB41;" width="56.3" height="166.3"/>
<rect x="128.891" y="305.396" style="fill:#00EFD1;" width="56.3" height="92.2"/>
<rect x="13.591" y="284.696" style="fill:#FEDB41;" width="56.3" height="112.9"/>
<g>
	
		<rect x="89.378" y="181.24" transform="matrix(-0.3756 0.9268 -0.9268 -0.3756 330.5323 195.5894)" style="fill:#00EFD1;" width="20" height="55.801"/>
	
		<rect x="179.516" y="177.395" transform="matrix(-0.7644 0.6447 -0.6447 -0.7644 503.3691 190.8591)" style="fill:#00EFD1;" width="74.598" height="19.999"/>
	
		<rect x="294.411" y="99.584" transform="matrix(-0.8159 0.5782 -0.5782 -0.8159 662.5364 8.2112)" style="fill:#00EFD1;" width="71.1" height="20"/>
</g>
<g>
	<ellipse style="fill:#00ACEA;" cx="41.802" cy="198.688" rx="41.801" ry="41.801"/>
	<circle style="fill:#00ACEA;" cx="272.491" cy="146.196" r="41.8"/>
	<circle style="fill:#00ACEA;" cx="387.791" cy="73.796" r="41.8"/>
	<circle style="fill:#00ACEA;" cx="157.091" cy="219.696" r="41.8"/>
</g>
<g>
</g>
<g>
</g>
<g>
</g>
<g>
</g>
<g>
</g>
<g>
</g>
<g>
</g>
<g>
</g>
<g>
</g>
<g>
</g>
<g>
</g>
<g>
</g>
<g>
</g>
<g>
</g>
<g>
</g>
</svg>
