<svg id="Capa_1" enable-background="new 0 0 511.182 511.182" height="512" viewBox="0 0 511.182 511.182" width="512" xmlns="http://www.w3.org/2000/svg"><g><g><g><path d="m412.938 349.104c49.771 0 90.953-39.827 91.355-89.597.332-41.042-26.708-75.815-63.959-87.172-1.687-.514-2.9-1.997-3.09-3.75-4.476-41.291-39.426-73.438-81.908-73.438-8.697 0-17.078 1.35-24.949 3.847-1.913.607-3.996-.132-5.083-1.819-22.537-34.988-61.837-58.159-106.55-58.159-60.947 0-111.831 43.052-123.919 100.403-.363 1.723-1.732 3.066-3.459 3.406-47.584 9.38-83.531 51.17-83.875 101.424-.395 57.669 47.718 104.855 105.389 104.855z" fill="#badafb"/><g><path d="m79.917 262.003c.3-43.891 27.758-81.325 66.407-96.35 12.118-4.711 21.649-14.468 26.209-26.644 17.173-45.856 60.158-79.102 111.278-82.028-19.016-11.41-41.264-17.965-65.055-17.965-60.947 0-111.831 43.052-123.919 100.403-.363 1.723-1.732 3.066-3.459 3.406-47.584 9.38-83.53 51.169-83.874 101.423-.397 57.995 47.392 104.856 105.389 104.856h13.952c-28.325-18.864-47.176-50.917-46.928-87.101z" fill="#97c9f9"/></g><path d="m302.279 284.71v110.273h47.573c4.099 0 5.837 5.218 2.557 7.676l-90.132 67.544c-3.533 2.648-8.389 2.648-11.923 0l-90.132-67.544c-3.28-2.458-1.542-7.676 2.557-7.676h47.573v-110.273c0-4.771 3.867-8.638 8.638-8.638h74.65c4.772 0 8.639 3.867 8.639 8.638z" fill="#b1f5d5"/></g><path d="m266.363 449.357c-21.257-26.288-32.853-59.072-32.853-92.88v-77.897c0-.867.102-1.704.274-2.508h-14.793c-4.771 0-8.638 3.867-8.638 8.638v110.273h-47.573c-4.099 0-5.837 5.219-2.557 7.676l90.132 67.544c3.533 2.648 8.389 2.648 11.922 0l13.041-9.772z" fill="#91f2c5"/></g><g><path d="m164.406 59.609c16.915-8.688 35.201-13.093 54.349-13.093 40.699 0 78.173 20.456 100.244 54.72 2.909 4.517 8.527 6.535 13.657 4.907 7.31-2.32 14.939-3.496 22.68-3.496 38.319 0 70.326 28.695 74.451 66.744.515 4.755 3.796 8.728 8.359 10.119 31.473 9.595 54.272 36.886 58.086 69.527.446 3.819 3.687 6.631 7.439 6.631.291 0 .585-.017.88-.052 4.114-.48 7.06-4.206 6.579-8.319-4.426-37.888-30.5-69.672-66.67-81.521-5.841-44.683-43.806-78.128-89.125-78.128-8.503 0-16.901 1.186-24.999 3.526-24.997-37.399-66.535-59.657-111.582-59.657-21.555 0-42.146 4.963-61.202 14.75-3.685 1.893-5.137 6.414-3.245 10.098 1.893 3.683 6.414 5.137 10.099 3.244z"/><path d="m503.508 272.845c-4.021-.989-8.084 1.47-9.074 5.492-4.36 17.731-14.802 33.808-29.4 45.271-14.781 11.605-33.282 17.997-52.096 17.997h-80.659c-4.143 0-7.5 3.358-7.5 7.5s3.357 7.5 7.5 7.5h80.659c22.157 0 43.948-7.528 61.358-21.199 17.223-13.521 29.547-32.517 34.704-53.486.99-4.023-1.469-8.086-5.492-9.075z"/><path d="m187.853 349.104c0-4.142-3.358-7.5-7.5-7.5h-67.462c-26.285 0-51.062-10.373-69.768-29.206-18.308-18.434-28.295-42.618-28.12-68.098.312-45.708 33.042-85.289 77.825-94.117 4.693-.925 8.363-4.543 9.347-9.218 5.251-24.912 18.124-47.103 37.225-64.174 3.089-2.76 3.355-7.501.595-10.59-2.76-3.088-7.501-3.354-10.59-.595-20.991 18.759-35.3 43.02-41.472 70.272-50.72 10.967-87.573 56.196-87.93 108.319-.202 29.505 11.333 57.479 32.478 78.771 21.542 21.69 50.1 33.636 80.411 33.636h67.462c4.141 0 7.499-3.358 7.499-7.5z"/><path d="m349.852 387.483h-40.073v-102.773c0-8.898-7.239-16.138-16.138-16.138h-74.65c-8.898 0-16.138 7.239-16.138 16.138v41.997c0 4.142 3.358 7.5 7.5 7.5s7.5-3.358 7.5-7.5v-41.997c0-.627.51-1.138 1.138-1.138h74.65c.627 0 1.138.51 1.138 1.138v110.273c0 4.142 3.357 7.5 7.5 7.5h37.858l-82.358 61.719c-.861.645-2.064.646-2.926 0l-82.358-61.718h37.858c4.142 0 7.5-3.358 7.5-7.5v-36.314c0-4.142-3.358-7.5-7.5-7.5s-7.5 3.358-7.5 7.5v28.814h-40.073c-5.073 0-9.558 3.233-11.161 8.046-1.603 4.812.047 10.09 4.106 13.132l90.131 67.543c3.079 2.308 6.769 3.462 10.459 3.461 3.689 0 7.38-1.154 10.459-3.461l90.131-67.544c4.06-3.042 5.71-8.319 4.107-13.132-1.602-4.813-6.088-8.046-11.16-8.046z"/><path d="m207.394 231.152c0 4.142 3.358 7.5 7.5 7.5h82.844c4.143 0 7.5-3.358 7.5-7.5s-3.357-7.5-7.5-7.5h-82.844c-4.142 0-7.5 3.358-7.5 7.5z"/><path d="m221.705 186.233c0 4.142 3.358 7.5 7.5 7.5h54.223c4.143 0 7.5-3.358 7.5-7.5s-3.357-7.5-7.5-7.5h-54.223c-4.142 0-7.5 3.358-7.5 7.5z"/><path d="m273.887 148.813c4.143 0 7.5-3.358 7.5-7.5s-3.357-7.5-7.5-7.5h-35.143c-4.142 0-7.5 3.358-7.5 7.5s3.358 7.5 7.5 7.5z"/></g></g></svg>