<svg height="512" viewBox="0 0 36 36" width="512" xmlns="http://www.w3.org/2000/svg"><path d="M4.167 8.377c0 6.917-3.583 11.667-3.583 15S2.5 33.71 17.833 33.71s17.583-9.417 17.583-13.083C35.417 3.46 4.167-3.873 4.167 8.377z" fill="#efefef"/><path d="M26.9 3.613l.707-.707L29.02 4.32l-.707.707zm4.065 4.064l.707-.707 1.414 1.414-.707.707zm-.174-3.353l1.414-1.414.707.707-1.414 1.414z" fill="#a4afc1"/><path d="M22.25 13.25a1 1 0 00-1-1h-.5a1 1 0 00-1 1v2.5a1 1 0 001 1h.5a1 1 0 001-1z" fill="#f3f3f1"/><path d="M18.499 7.768c-4.123-2.29-10.749 0-10.749 0V20.25s5.863-2.714 10.749 0c4.501 2.5 9.751 1 9.751 1V8.768s-5.25 1.5-9.751-1zm3.751 7.982a1 1 0 01-1 1h-.5a1 1 0 01-1-1v-2.5a1 1 0 011-1h.5a1 1 0 011 1z" fill="#2fdf84"/><path d="M9.875 7.768s2.306-.791 5.041-.975c-3.551-.27-7.166.975-7.166.975V20.25s.83-.384 2.125-.719z" fill="#00b871"/><path d="M24.538 22.452c-1.891 0-4.218-.332-6.403-1.546-4.486-2.492-10.015 0-10.07.025A.752.752 0 017 20.25V7.768a.75.75 0 01.505-.709c.283-.098 6.991-2.371 11.358.053 4.182 2.324 9.13.95 9.181.935a.747.747 0 01.657.123.744.744 0 01.299.598V13h-1.5V9.702c-1.79.326-5.769.719-9.365-1.279-3.157-1.753-8.06-.558-9.635-.103v10.835c1.994-.682 6.426-1.748 10.363.439 3.367 1.871 7.233 1.343 8.637 1.06V15H29v6.25a.75.75 0 01-.544.721c-.122.035-1.727.481-3.918.481z"/><path d="M7 6.75h1.5v22.5H7zM21.25 17.5h-.5c-.965 0-1.75-.785-1.75-1.75v-2.5c0-.965.785-1.75 1.75-1.75h.5c.965 0 1.75.785 1.75 1.75v2.5c0 .965-.785 1.75-1.75 1.75zm-.5-4.5a.25.25 0 00-.25.25v2.5c0 .138.112.25.25.25h.5a.25.25 0 00.25-.25v-2.5a.25.25 0 00-.25-.25zm-4.5 3.5h-1.5c-.965 0-1.75-.785-1.75-1.75v-2.5c0-.965.785-1.75 1.75-1.75H17V12h-2.25a.25.25 0 00-.25.25v2.5c0 .138.112.25.25.25h.75v-.5h-.75V13h1.5a.75.75 0 01.75.75v2a.75.75 0 01-.75.75z"/><path d="M2 27.75h32v1.5H2z"/></svg>