<svg id="line" enable-background="new 0 0 36 36" height="512" viewBox="0 0 36 36" width="512" xmlns="http://www.w3.org/2000/svg"><g><path d="m4.167 8.377c0 6.917-3.583 11.667-3.583 15s1.916 10.333 17.249 10.333 17.583-9.417 17.583-13.083c.001-17.167-31.249-24.5-31.249-12.25z" fill="#efefef"/></g><g><path d="m27.467 2.967h1v2h-1z" fill="#a4afc1" transform="matrix(.707 -.707 .707 .707 5.383 20.934)"/></g><g><path d="m31.533 7.033h1v2h-1z" fill="#a4afc1" transform="matrix(.707 -.707 .707 .707 3.699 24.999)"/></g><g><path d="m30.856 3.467h2v1h-2z" fill="#a4afc1" transform="matrix(.707 -.707 .707 .707 6.525 23.688)"/></g><g><path d="m22.25 13.25c0-.552-.448-1-1-1h-.5c-.552 0-1 .448-1 1v2.5c0 .552.448 1 1 1h.5c.552 0 1-.448 1-1z" fill="#f3f3f1"/></g><g><path d="m18.499 7.768c-4.123-2.29-10.749 0-10.749 0v12.482s5.863-2.714 10.749 0c4.501 2.5 9.751 1 9.751 1v-12.482s-5.25 1.5-9.751-1zm3.751 7.982c0 .552-.448 1-1 1h-.5c-.552 0-1-.448-1-1v-2.5c0-.552.448-1 1-1h.5c.552 0 1 .448 1 1z" fill="#2fdf84"/></g><g><path d="m9.875 7.768s2.306-.791 5.041-.975c-3.551-.27-7.166.975-7.166.975v12.482s.83-.384 2.125-.719z" fill="#00b871"/></g><g><path d="m24.538 22.452c-1.891 0-4.218-.332-6.403-1.546-4.486-2.492-10.015 0-10.07.025-.231.106-.502.089-.719-.05-.215-.138-.346-.376-.346-.631v-12.482c0-.32.203-.604.505-.709.283-.098 6.991-2.371 11.358.053 4.182 2.324 9.13.95 9.181.935.225-.064.471-.02.657.123.189.141.299.362.299.598v4.232h-1.5v-3.298c-1.79.326-5.769.719-9.365-1.279-3.157-1.753-8.06-.558-9.635-.103v10.835c1.994-.682 6.426-1.748 10.363.439 3.367 1.871 7.233 1.343 8.637 1.06v-5.654h1.5v6.25c0 .335-.222.629-.544.721-.122.035-1.727.481-3.918.481z"/></g><g><path d="m7 6.75h1.5v22.5h-1.5z"/></g><g><path d="m21.25 17.5h-.5c-.965 0-1.75-.785-1.75-1.75v-2.5c0-.965.785-1.75 1.75-1.75h.5c.965 0 1.75.785 1.75 1.75v2.5c0 .965-.785 1.75-1.75 1.75zm-.5-4.5c-.138 0-.25.112-.25.25v2.5c0 .138.112.25.25.25h.5c.138 0 .25-.112.25-.25v-2.5c0-.138-.112-.25-.25-.25z"/></g><g><path d="m16.25 16.5h-1.5c-.965 0-1.75-.785-1.75-1.75v-2.5c0-.965.785-1.75 1.75-1.75h2.25v1.5h-2.25c-.138 0-.25.112-.25.25v2.5c0 .138.112.25.25.25h.75v-.5h-.75v-1.5h1.5c.414 0 .75.336.75.75v2c0 .414-.336.75-.75.75z"/></g><g><path d="m2 27.75h32v1.5h-32z"/></g></svg>