<svg height="512pt" viewBox="-21 0 512 512" width="512pt" xmlns="http://www.w3.org/2000/svg"><path d="M466.578 3.5a10.713 10.713 0 00-7.914-3.5h-448c-3.031 0-5.89 1.281-7.918 3.5C.723 5.762-.262 8.727.06 11.734l42.668 426.664a10.693 10.693 0 007.23 9.067l192 64c1.11.344 2.219.535 3.371.535 1.281 0 2.54-.234 3.754-.684l170.668-64a10.588 10.588 0 006.848-8.918l42.668-426.664c.32-3.007-.664-5.972-2.688-8.234zm0 0" fill="#ffc107"/><path d="M245.328 512c-1.152 0-2.262-.191-3.371-.535l-192-64c-3.988-1.32-6.805-4.883-7.23-9.067L.059 11.734C-.261 8.727.723 5.762 2.746 3.5A10.715 10.715 0 0110.664 0h448c3.027 0 5.887 1.281 7.914 3.5a10.6 10.6 0 012.688 8.234l-42.668 426.664c-.407 4.036-3.07 7.512-6.848 8.918l-170.668 64c-1.215.45-2.473.684-3.754.684zM63.25 429.398l181.867 60.63 160.914-60.352 40.832-408.344H22.461zm0 0"/><path d="M266.664 394.668c-4.46 0-8.621-2.84-10.137-7.297-1.855-5.59 1.176-11.629 6.743-13.504l58.007-19.328L339.22 256h-72.555c-5.89 0-10.668-4.777-10.668-10.668v-128c0-5.887 4.777-10.664 10.668-10.664h106.664a10.72 10.72 0 018.426 4.094c2.027 2.582 2.73 5.953 1.941 9.152l-10.664 42.668c-1.43 5.715-7.148 9.129-12.93 7.766-5.738-1.43-9.195-7.235-7.765-12.93L359.652 128h-82.324v106.668h74.668a10.61 10.61 0 018.191 3.84 10.62 10.62 0 012.305 8.746l-21.336 117.332a10.691 10.691 0 01-7.125 8.215l-64 21.332a10.866 10.866 0 01-3.367.535zm-42.668 0c-.98 0-1.965-.129-2.945-.43l-74.664-21.332c-3.844-1.086-6.723-4.246-7.532-8.172l-10.667-53.332c-1.172-5.78 2.582-11.39 8.382-12.543 5.485-1.214 11.371 2.559 12.547 8.383l9.387 46.934 54.824 15.68V128H95.996c-5.887 0-10.668-4.777-10.668-10.668 0-5.887 4.781-10.664 10.668-10.664h128c5.887 0 10.668 4.777 10.668 10.664V384a10.6 10.6 0 01-4.246 8.512 10.59 10.59 0 01-6.422 2.156zm0 0"/></svg>