<svg height="512" width="512" xmlns="http://www.w3.org/2000/svg"><path d="M486.508 364.75V100.983c0-6.107-4.957-11.064-11.064-11.064H36.558c-6.107 0-11.064 4.957-11.064 11.064V364.75z" fill="#557983"/><path d="M443.478 100.982V364.75h43.031V100.982c0-6.109-4.955-11.064-11.064-11.064h-43.031c6.109 0 11.064 4.955 11.064 11.064z" fill="#47666b"/><path d="M486.509 355.931v29.031c0 6.109-4.955 11.064-11.064 11.064H36.557c-6.109 0-11.064-4.955-11.064-11.064v-29.031z" fill="#7da2b0"/><path d="M486.509 355.931v29.031c0 6.109-4.955 11.064-11.064 11.064h-43.031c6.109 0 11.064-4.955 11.064-11.064v-29.031z" fill="#688d97"/><path d="M453.317 133.416v212.207c0 5.687-4.615 10.302-10.302 10.302H68.987c-5.687 0-10.302-4.615-10.302-10.302V133.416c0-5.687 4.615-10.302 10.302-10.302h374.028c5.687 0 10.302 4.615 10.302 10.302z" fill="#b5dbfd"/><path d="M360.91 130.634c0 14.927-12.105 27.032-27.032 27.032h-62.501l-11.445 15.968c-2.06 2.864-6.325 2.864-8.376 0L240.1 157.666h-62.501c-7.459 0-14.217-3.029-19.11-7.922a26.904 26.904 0 01-7.912-19.11c0-2.606.371-5.13 1.061-7.52h208.2a26.68 26.68 0 011.072 7.52zm92.407 2.778v212.217c0 5.687-4.615 10.302-10.302 10.302h-35.562c5.687 0 10.302-4.615 10.302-10.302V133.412c0-5.687-4.615-10.302-10.302-10.302h35.562c5.686 0 10.302 4.615 10.302 10.302z" fill="#8dcafc"/><path d="M180.957 390.21H10.302C4.612 390.21 0 394.822 0 400.512v20.483c0 5.689 4.612 10.302 10.302 10.302h170.656V390.21zm320.741 0H336.273v41.087h165.426c5.69 0 10.302-4.612 10.302-10.302v-20.483c-.001-5.69-4.613-10.302-10.303-10.302z" fill="#a9d3d8"/><path d="M511.996 400.507v20.49c0 5.687-4.605 10.302-10.302 10.302h-36.093c5.687 0 10.302-4.615 10.302-10.302v-20.49c0-5.687-4.615-10.302-10.302-10.302h36.093c5.697 0 10.302 4.616 10.302 10.302z" fill="#90bac4"/><path d="M168.113 390.21h175.775v41.086H168.113z" fill="#557983"/><circle cx="137.054" cy="227.192" fill="#eef4f5" r="45.736"/><path d="M182.788 227.192c0 25.258-20.477 45.735-45.735 45.735-3.216 0-6.352-.334-9.38-.965 20.762-4.332 36.355-22.728 36.355-44.77s-15.593-40.438-36.355-44.77a45.931 45.931 0 019.38-.965c25.259 0 45.735 20.477 45.735 45.735z" fill="#cbe5e7"/><path d="M173.196 255.21c-8.361 10.781-21.442 17.716-36.143 17.716s-27.782-6.935-36.143-17.716c6.547-13.342 20.271-22.528 36.143-22.528s29.597 9.187 36.143 22.528z" fill="#27e19d"/><path d="M173.196 255.21c-8.361 10.781-21.442 17.716-36.143 17.716-3.216 0-6.352-.334-9.38-.965 16.151-3.367 29.177-15.253 34.165-30.743a40.324 40.324 0 0111.358 13.992z" fill="#26d192"/><path d="M122.027 221.769v5.751c0 8.426 6.896 15.482 15.321 15.32 8.164-.157 14.732-6.822 14.732-15.024v-6.048c0-8.299-6.728-15.026-15.026-15.026-8.299 0-15.027 6.728-15.027 15.027z" fill="#ffcec0"/><circle cx="256.001" cy="227.192" fill="#eef4f5" r="45.736"/><path d="M301.736 227.192c0 25.258-20.477 45.735-45.735 45.735-3.216 0-6.352-.334-9.38-.965 20.762-4.332 36.355-22.728 36.355-44.77s-15.593-40.438-36.355-44.77a45.931 45.931 0 019.38-.965c25.258 0 45.735 20.477 45.735 45.735z" fill="#cbe5e7"/><path d="M292.144 255.21c-8.361 10.781-21.442 17.716-36.143 17.716s-27.782-6.935-36.143-17.716c6.547-13.342 20.271-22.528 36.143-22.528 15.872.001 29.596 9.187 36.143 22.528z" fill="#fddd45"/><path d="M292.144 255.21c-8.361 10.781-21.442 17.716-36.143 17.716-3.216 0-6.352-.334-9.38-.965 16.151-3.367 29.177-15.253 34.165-30.743a40.346 40.346 0 0111.358 13.992z" fill="#f8c52d"/><path d="M240.975 221.769v5.751c0 8.426 6.896 15.482 15.321 15.32 8.164-.157 14.732-6.822 14.732-15.024v-6.048c0-8.299-6.728-15.026-15.026-15.026-8.3 0-15.027 6.728-15.027 15.027z" fill="#ffcec0"/><g><circle cx="374.948" cy="227.192" fill="#eef4f5" r="45.736"/><path d="M420.683 227.192c0 25.258-20.477 45.735-45.735 45.735-3.216 0-6.352-.334-9.38-.965 20.762-4.332 36.355-22.728 36.355-44.77s-15.593-40.438-36.355-44.77a45.931 45.931 0 019.38-.965c25.258 0 45.735 20.477 45.735 45.735z" fill="#cbe5e7"/><path d="M411.091 255.21c-8.361 10.781-21.442 17.716-36.143 17.716s-27.782-6.935-36.143-17.716c6.547-13.342 20.271-22.528 36.143-22.528s29.596 9.187 36.143 22.528z" fill="#fb3a82"/><path d="M411.091 255.21c-8.361 10.781-21.442 17.716-36.143 17.716-3.216 0-6.352-.334-9.38-.965 16.151-3.367 29.177-15.253 34.165-30.743a40.335 40.335 0 0111.358 13.992z" fill="#fb1466"/><path d="M359.922 221.769v5.751c0 8.426 6.896 15.482 15.321 15.32 8.163-.157 14.732-6.822 14.732-15.024v-6.048c0-8.299-6.728-15.026-15.026-15.026-8.3 0-15.027 6.728-15.027 15.027z" fill="#ffcec0"/></g><g><path d="M333.878 80.701H177.604c-14.929 0-27.032 12.102-27.032 27.032 0 14.929 12.102 27.032 27.032 27.032h62.497l11.454 15.971c2.055 2.865 6.316 2.865 8.371 0l11.455-15.971h62.497c14.929 0 27.032-12.102 27.032-27.032s-12.103-27.032-27.032-27.032z" fill="#fddd45"/><path d="M360.914 107.736c0 14.927-12.105 27.032-27.032 27.032H298c14.927 0 27.022-12.105 27.022-27.032 0-7.469-3.029-14.227-7.912-19.12-4.893-4.883-11.641-7.912-19.11-7.912h35.881c7.458 0 14.216 3.029 19.11 7.912 4.894 4.894 7.923 11.652 7.923 19.12z" fill="#f8c52d"/></g><g fill="#eef4f5"><path d="M146.845 316.381h-19.583a7.726 7.726 0 110-15.452h19.583c4.268 0 7.726 3.459 7.726 7.726s-3.458 7.726-7.726 7.726zm118.427 0H245.69a7.726 7.726 0 110-15.452h19.581a7.725 7.725 0 017.726 7.726 7.724 7.724 0 01-7.725 7.726zm118.426 0h-19.581a7.726 7.726 0 110-15.452h19.581a7.725 7.725 0 017.726 7.726 7.725 7.725 0 01-7.726 7.726z"/></g></svg>