<svg height="512" width="512" xmlns="http://www.w3.org/2000/svg"><circle cx="256" cy="256" fill="#ffda00" r="256"/><path d="M512 256c0-12.744-.945-25.266-2.743-37.511l-46.071-46.071L285 346l-29 132 32.011 32.011C414.287 494.258 512 386.543 512 256z" fill="#fec20a"/><path d="M256 34L48.815 172.417 256 478l207.185-305.583z" fill="#f9306e"/><path d="M463.19 172.42L256 478V34z" fill="#e3134d"/><path d="M256 34L48.815 172.417 171 224.899h170l122.185-52.482z" fill="#e3134d"/><path d="M463.19 172.42L341 224.9h-85V34z" fill="#c9003e"/><path d="M171 224.899L256 478l85-253.101z" fill="#ff649c"/><path d="M341 224.9L256 478V224.9zM256 34l-85 190.899h170z" fill="#f9306e"/><path d="M341 224.9h-85V34z" fill="#e3134d"/></svg>