<svg xmlns="http://www.w3.org/2000/svg" viewBox="0 0 512.001 512.001"><path fill="#ef938f" d="M502 130H10l90-120h312z"/><path d="M256.667 10l-78.334 120L100 10zm0 0L335 130l78.333-120zM502 210H10l246 292z" fill="#ef6c6a"/><path fill="#ef938f" d="M334.333 210H177.667L256 502z"/><path fill="#ef6c6a" d="M10 130h492v80H10z"/><path d="M375 180c5.51 0 10-4.49 10-10s-4.49-10-10-10-10 4.49-10 10 4.49 10 10 10zm-238-20h-26c-5.51 0-10 4.49-10 10s4.49 10 10 10h26c5.51 0 10-4.49 10-10s-4.49-10-10-10zm-66 0c-5.521 0-10 4.49-10 10s4.479 10 10 10c5.51 0 10-4.49 10-10s-4.49-10-10-10zm197.33 0c-5.511 0-10 4.49-10 10s4.489 10 10 10c5.52 0 10-4.49 10-10s-4.48-10-10-10z"/><path d="M509.99 124.005C509.993 124.003 420 4 420 4a9.999 9.999 0 00-8-4H100a9.999 9.999 0 00-8 4S2.007 124.003 2.011 124.004A9.943 9.943 0 000 130v80c0 2.455.888 4.7 2.356 6.441-.001.001 245.996 292.003 245.996 292.003a9.998 9.998 0 0015.294 0s245.998-292.002 245.996-292.003A9.947 9.947 0 00512 210v-80a9.945 9.945 0 00-2.01-5.995zm-96.709-95.631L482 120H353.47l59.811-91.626zM394.863 20L335 111.706 275.137 20h119.726zM190.702 220h130.596L256 463.405 190.702 220zm117.628-40H325v20H188.333v-60H325v20h-16.67c-5.511 0-10 4.49-10 10s4.489 10 10 10zm8.2-60H196.803l59.864-91.706L316.53 120zM238.197 20l-59.864 91.706L118.47 20h119.727zM99.432 27.424L159.863 120H30l69.432-92.576zM20 140h148.333v60H20v-60zm149.995 80L234.7 461.197 31.5 220h138.495zm107.304 241.197L342.005 220H480.5L277.299 461.197zM492 160h-77c-5.51 0-10 4.49-10 10s4.49 10 10 10h77v20H345v-60h147v20z"/></svg>