<svg xmlns="http://www.w3.org/2000/svg" viewBox="0 0 512 512"><path d="M499.975 131.542H12.012a4.505 4.505 0 00-4.506 4.506V370.74c0 5.349 4.336 9.686 9.686 9.686h242.892a4.5 4.5 0 003.186-1.32l239.89-239.87c2.84-2.84.829-7.694-3.185-7.694z" fill="#0964af"/><path d="M32.026 131.542H12.012a4.508 4.508 0 00-4.506 4.506V370.74c0 5.349 4.336 9.686 9.686 9.686h10.327V136.048a4.506 4.506 0 014.507-4.506z" fill="#004f9c"/><path d="M309.193 250.616H298.29v-39.917c13.751 0 37.047-1.996 37.047 19.746 0 15.354-11.591 20.171-26.144 20.171m-133.258 25.675l15.711-49.53h.302l15.38 49.688c-9.906 3.614-21.794 3.517-31.393-.158zm130.354-97.977l-49.559-.009v117.73l-43.252-117.73h-42.912l-36.945 98.453c-3.908-24.8-29.59-33.378-49.843-39.794-13.348-4.312-27.45-10.645-27.349-17.577.102-5.735 7.603-11.012 22.457-10.231 9.928.506 18.707 1.315 36.183 9.764l17.255-29.988c-15.986-8.108-38.05-13.228-56.113-13.255h-.11c-34.003 0-60.963 18.012-61.399 46.974-.505 28.813 21.383 40.926 50.709 49.981 13.705 4.263 24.948 7.949 24.81 15.868-.118 6.302-4.759 12.411-19.204 12.758-14.055.246-24.471-1.938-41.017-11.711L14.703 319.9c30.724 17.48 75.497 22.72 103.07-.909l-4.945 13.219h44.98l7.537-22.907c16.06 5.322 35.002 5.709 52.271.183l7.299 22.723h73.376v-47.528h15.977c38.672 0 61.61-19.699 61.61-52.718 0-36.77-22.256-53.649-69.589-53.649" fill="#f2f2f2"/><path d="M52.19 299.345c-6.656-1.704-13.594-4.721-22.189-9.798L14.703 319.9a114.89 114.89 0 0023.195 9.979l14.292-30.534zm26.473-22.179v-.483c-25.707-10.064-41.715-23.571-41.277-50.425.394-28.204 22.385-46.328 50.608-49.901-4.039-.432-8.001-.673-11.781-.679h-.11c-34.009 0-60.963 18.017-61.399 46.974-.505 28.813 21.383 40.926 50.709 49.981 4.859 1.511 9.407 2.951 13.25 4.533zm113.508-98.861h-21.604l-57.739 153.904h29.018zm63.826 153.904h29.309V178.31l-28.576-.005v117.73l-.733-1.994z" fill="#d6d6d8"/><path d="M298.291 258.137h10.904c30.37 0 33.648-19.354 33.648-27.675 0-8.194-3.278-27.251-33.648-27.251h-10.904a7.504 7.504 0 00-7.505 7.505v39.917a7.503 7.503 0 007.505 7.504zm7.505-39.916c11.7 0 22.036.602 22.036 12.24 0 11.941-10.051 12.665-22.036 12.665v-24.905zm-106.679 6.336c-2.184-7.05-12.419-7.009-14.626-.05l-15.711 49.53a7.505 7.505 0 004.471 9.277c11.328 4.338 25.108 4.411 36.649.199a7.505 7.505 0 004.597-9.269l-15.38-49.687zm-13.66 46.554l6.254-19.718 6.118 19.768a40.692 40.692 0 01-12.372-.05z"/><path d="M499.975 124.053H222.141a7.504 7.504 0 00-7.505 7.505 7.504 7.504 0 007.505 7.505h270.593l-112 111.989c5.268-17.685 4.566-48.825-17.33-65.639-12.784-9.817-31.466-14.588-57.114-14.588l-49.558-.009h-.001a7.507 7.507 0 00-7.505 7.505v75.537l-28.703-78.126a7.507 7.507 0 00-7.045-4.917h-42.912a7.502 7.502 0 00-7.026 4.868l-30.369 80.927c-18.264-24.691-58.335-25.778-68.896-37.26 1.23-1.087 5.282-3.155 14.229-2.684 8.41.428 16.354.834 33.298 9.025a7.51 7.51 0 009.773-3.014c18.605-32.333 19.17-31.756 17.942-35.875a7.506 7.506 0 00-3.798-4.55c-38.343-19.445-97.392-22.108-120.71 14.069v-57.258h172.107a7.504 7.504 0 007.505-7.505 7.504 7.504 0 00-7.505-7.505H12.012C5.389 124.053 0 129.44 0 136.063V380.44a7.504 7.504 0 007.505 7.505h179.612c4.146 0 7.505-3.36 7.505-7.505s-3.359-7.505-7.505-7.505H15.01v-44.319c26.942 14.023 63.863 19.163 91.015 6.78a7.507 7.507 0 006.803 4.334h44.98a7.504 7.504 0 007.129-5.16l5.288-16.071c13.323 3.172 28.211 3.415 42.442.138l5.103 15.884a7.506 7.506 0 007.146 5.21h67.135l-33.208 33.206h-36.7c-4.146 0-7.505 3.36-7.505 7.505s3.359 7.505 7.505 7.505h37.942c3.163 0 6.259-1.283 8.492-3.517L508.47 144.558c7.548-7.551 2.192-20.505-8.495-20.505zM23.299 286.185L15.01 302.63v-51.798c10.409 15.309 30.365 23.484 48.172 28.982 5.552 1.727 18.555 5.772 19.534 8.564-.084 4.606-7.253 5.282-11.831 5.392-12.255.212-21.336-1.376-37.068-10.669-3.739-2.208-8.566-.789-10.518 3.084zm267.486 38.535h-60.398l-5.626-17.512a7.508 7.508 0 00-9.432-4.853c-15.743 5.036-33.055 4.667-47.624-.16a7.507 7.507 0 00-9.49 4.778l-5.839 17.746h-28.728l1.153-3.085a7.504 7.504 0 00-2.73-8.781c-10.549-7.372-10.473 14.087-51.265 14.504-15.867 0-31.66-3.665-46.084-10.649l8.47-16.802c14.796 7.607 25.458 9.089 38.005 8.871 19.384-.467 26.352-10.593 26.527-20.13.529-30.511-76.378-16.76-75.519-65.867.545-35.993 49.59-50.667 99.495-30.417l-9.725 16.901c-30.234-13.031-62.706-9.46-63.051 10.029-.143 9.721 10.199 17.61 32.586 24.841 22.671 7.182 41.682 14.683 44.696 33.808 1.196 7.6 11.747 8.645 14.44 1.469l35.119-93.585h32.473l41.446 112.813c2.872 7.812 14.55 5.767 14.55-2.588V185.827c57.16.01 104.137-5.533 104.137 46.152 0 28.733-19.721 45.213-54.105 45.213H298.29a7.504 7.504 0 00-7.505 7.505v40.023zm15.011-32.517c10.403 0 23.458.514 38.355-4.569l-38.355 38.351v-33.782z"/></svg>