<?xml version="1.0" encoding="iso-8859-1"?>
<!-- Generator: Adobe Illustrator 19.0.0, SVG Export Plug-In . SVG Version: 6.00 Build 0)  -->
<svg version="1.1" id="Capa_1" xmlns="http://www.w3.org/2000/svg" xmlns:xlink="http://www.w3.org/1999/xlink" x="0px" y="0px"
	 viewBox="0 0 512 512" style="enable-background:new 0 0 512 512;" xml:space="preserve">
<path style="fill:#0964AF;" d="M499.975,131.542H12.012c-2.489,0-4.506,2.017-4.506,4.506V370.74c0,5.349,4.336,9.686,9.686,9.686
	h242.892c1.195,0,2.342-0.474,3.186-1.32l239.89-239.87C506,136.396,503.989,131.542,499.975,131.542z"/>
<path style="fill:#004F9C;" d="M32.026,131.542H12.012c-0.622,0-1.215,0.126-1.754,0.354c-1.617,0.684-2.752,2.286-2.752,4.152
	V370.74c0,5.349,4.336,9.686,9.686,9.686h10.327V136.048C27.519,133.559,29.537,131.542,32.026,131.542z"/>
<path style="fill:#F2F2F2;" d="M309.193,250.616h-10.903v-39.917c13.751,0,37.047-1.996,37.047,19.746
	C335.337,245.799,323.746,250.616,309.193,250.616 M175.935,276.291l15.711-49.53h0.302l15.38,49.688
	C197.422,280.063,185.534,279.966,175.935,276.291z M306.289,178.314l-49.559-0.009v117.73l-43.252-117.73h-42.912l-36.945,98.453
	c-3.908-24.8-29.59-33.378-49.843-39.794c-13.348-4.312-27.45-10.645-27.349-17.577c0.102-5.735,7.603-11.012,22.457-10.231
	c9.928,0.506,18.707,1.315,36.183,9.764l17.255-29.988c-15.986-8.108-38.05-13.228-56.113-13.255h-0.11
	c-34.003,0-60.963,18.012-61.399,46.974c-0.505,28.813,21.383,40.926,50.709,49.981c13.705,4.263,24.948,7.949,24.81,15.868
	c-0.118,6.302-4.759,12.411-19.204,12.758c-14.055,0.246-24.471-1.938-41.017-11.711L14.703,319.9
	c30.724,17.48,75.497,22.72,103.07-0.909l-4.945,13.219h44.98l7.537-22.907c16.06,5.322,35.002,5.709,52.271,0.183l7.299,22.723
	h73.376v-47.528h15.977c38.672,0,61.61-19.699,61.61-52.718C375.878,195.193,353.622,178.314,306.289,178.314"/>
<g>
	<path style="fill:#D6D6D8;" d="M52.19,299.345c-6.656-1.704-13.594-4.721-22.189-9.798L14.703,319.9
		c7.229,4.113,15.032,7.484,23.195,9.979L52.19,299.345z"/>
	<path style="fill:#D6D6D8;" d="M78.663,277.166v-0.483c-25.707-10.064-41.715-23.571-41.277-50.425
		c0.394-28.204,22.385-46.328,50.608-49.901c-4.039-0.432-8.001-0.673-11.781-0.679h-0.11c-34.009,0-60.963,18.017-61.399,46.974
		c-0.505,28.813,21.383,40.926,50.709,49.981C70.272,274.144,74.82,275.584,78.663,277.166z"/>
	<polygon style="fill:#D6D6D8;" points="192.171,178.305 170.567,178.305 112.828,332.209 141.846,332.209 	"/>
	<polygon style="fill:#D6D6D8;" points="255.997,332.209 285.306,332.209 285.306,178.31 256.73,178.305 256.73,296.035 
		255.997,294.041 	"/>
</g>
<path d="M298.291,258.137h10.904c30.37,0,33.648-19.354,33.648-27.675c0-8.194-3.278-27.251-33.648-27.251h-10.904
	c-4.146,0-7.505,3.36-7.505,7.505v39.917C290.785,254.777,294.145,258.137,298.291,258.137z M305.796,218.221
	c11.7,0,22.036,0.602,22.036,12.24c0,11.941-10.051,12.665-22.036,12.665V218.221z"/>
<path d="M199.117,224.557c-2.184-7.05-12.419-7.009-14.626-0.05l-15.711,49.53c-1.201,3.789,0.76,7.856,4.471,9.277
	c11.328,4.338,25.108,4.411,36.649,0.199c3.758-1.371,5.779-5.448,4.597-9.269L199.117,224.557z M185.457,271.111l6.254-19.718
	l6.118,19.768C193.774,271.776,189.463,271.757,185.457,271.111z"/>
<path d="M499.975,124.053H222.141c-4.146,0-7.505,3.36-7.505,7.505c0,4.145,3.359,7.505,7.505,7.505h270.593L380.734,251.052
	c5.268-17.685,4.566-48.825-17.33-65.639c-12.784-9.817-31.466-14.588-57.114-14.588l-49.558-0.009h-0.001
	c-4.142,0-7.505,3.36-7.505,7.505v75.537l-28.703-78.126c-1.086-2.954-3.899-4.917-7.045-4.917h-42.912
	c-3.128,0-5.928,1.939-7.026,4.868l-30.369,80.927c-18.264-24.691-58.335-25.778-68.896-37.26c1.23-1.087,5.282-3.155,14.229-2.684
	c8.41,0.428,16.354,0.834,33.298,9.025c3.542,1.711,7.808,0.397,9.773-3.014c18.605-32.333,19.17-31.756,17.942-35.875
	c-0.588-1.973-1.961-3.618-3.798-4.55c-38.343-19.445-97.392-22.108-120.71,14.069v-57.258h172.107c4.146,0,7.505-3.36,7.505-7.505
	c0-4.145-3.359-7.505-7.505-7.505H12.012C5.389,124.053,0,129.44,0,136.063V380.44c0,4.145,3.359,7.505,7.505,7.505h179.612
	c4.146,0,7.505-3.36,7.505-7.505s-3.359-7.505-7.505-7.505H15.01v-44.319c26.942,14.023,63.863,19.163,91.015,6.78
	c1.238,2.651,3.893,4.334,6.803,4.334h44.98c3.241,0,6.116-2.08,7.129-5.16l5.288-16.071c13.323,3.172,28.211,3.415,42.442,0.138
	l5.103,15.884c0.997,3.104,3.885,5.21,7.146,5.21h67.135l-33.208,33.206h-36.7c-4.146,0-7.505,3.36-7.505,7.505
	s3.359,7.505,7.505,7.505h37.942c3.163,0,6.259-1.283,8.492-3.517L508.47,144.558C516.018,137.007,510.662,124.053,499.975,124.053z
	 M23.299,286.185L15.01,302.63v-51.798c10.409,15.309,30.365,23.484,48.172,28.982c5.552,1.727,18.555,5.772,19.534,8.564
	c-0.084,4.606-7.253,5.282-11.831,5.392c-12.255,0.212-21.336-1.376-37.068-10.669C30.078,280.893,25.251,282.312,23.299,286.185z
	 M290.785,324.72h-60.398l-5.626-17.512c-1.267-3.944-5.492-6.113-9.432-4.853c-15.743,5.036-33.055,4.667-47.624-0.16
	c-3.937-1.305-8.194,0.836-9.49,4.778l-5.839,17.746h-28.728l1.153-3.085c1.2-3.207,0.077-6.819-2.73-8.781
	c-10.549-7.372-10.473,14.087-51.265,14.504c-15.867,0-31.66-3.665-46.084-10.649l8.47-16.802
	c14.796,7.607,25.458,9.089,38.005,8.871c19.384-0.467,26.352-10.593,26.527-20.13c0.529-30.511-76.378-16.76-75.519-65.867
	c0.545-35.993,49.59-50.667,99.495-30.417l-9.725,16.901c-30.234-13.031-62.706-9.46-63.051,10.029
	c-0.143,9.721,10.199,17.61,32.586,24.841c22.671,7.182,41.682,14.683,44.696,33.808c1.196,7.6,11.747,8.645,14.44,1.469
	l35.119-93.585h32.473l41.446,112.813c2.872,7.812,14.55,5.767,14.55-2.588V185.827c57.16,0.01,104.137-5.533,104.137,46.152
	c0,28.733-19.721,45.213-54.105,45.213H298.29c-4.146,0-7.505,3.36-7.505,7.505L290.785,324.72L290.785,324.72z M305.796,292.203
	c10.403,0,23.458,0.514,38.355-4.569l-38.355,38.351V292.203z"/>
<g>
</g>
<g>
</g>
<g>
</g>
<g>
</g>
<g>
</g>
<g>
</g>
<g>
</g>
<g>
</g>
<g>
</g>
<g>
</g>
<g>
</g>
<g>
</g>
<g>
</g>
<g>
</g>
<g>
</g>
</svg>
