<svg xmlns="http://www.w3.org/2000/svg" viewBox="0 0 512 512"><path d="M512 256c0 73.947-31.357 140.581-81.502 187.308C384.773 485.93 323.438 512 256 512c-67.448 0-128.784-26.081-174.508-68.702C31.347 396.57 0 329.947 0 256 0 114.615 114.615 0 256 0s256 114.615 256 256z" fill="#718882"/><path d="M430.497 181.71c0-13.776-31.379-33.293-87.632-30.614-56.253 2.678-254.097 32.371-261.368 74.543 0 0 31.284 13.568 155.271 21.891s182.249-40.18 182.249-40.18l11.48-25.64z" fill="#81091a"/><path d="M430.497 138.772c-5.74 33.293-113.655 50.896-188.659 63.141-75.005 12.245-139.293 13.777-160.341 23.727V95.608c21.047-9.95 85.337-11.48 160.342-23.725s182.919-29.85 188.658-63.142v130.031z" fill="#df352e"/><path d="M430.497 354.679c0-13.776-31.379-33.293-87.632-30.614-56.253 2.678-254.097 32.371-261.368 74.543 0 0 31.284 13.568 155.271 21.891 123.987 8.324 182.249-40.181 182.249-40.181l11.48-25.639z" fill="#81091a"/><path d="M430.497 311.741c-5.74 33.293-113.655 50.896-188.659 63.141-75.005 12.245-139.293 13.777-160.341 23.726V268.577c21.047-9.95 85.337-11.48 160.342-23.725s182.919-29.849 188.659-63.141v130.03h-.001zm.001 42.939v88.628C384.773 485.93 323.438 512 256 512c-67.448 0-128.784-26.081-174.508-68.702v-1.755c21.055-9.947 85.337-11.473 160.35-23.719 75.002-12.247 182.919-29.853 188.656-63.144z" fill="#df352e"/></svg>