<svg height="512" viewBox="0 0 256 256" width="512" xmlns="http://www.w3.org/2000/svg"><path d="M200.938 252H55.062c-5.523 0-10-4.477-10-10V14c0-5.523 4.477-10 10-10h145.876c5.523 0 10 4.477 10 10v228c0 5.523-4.477 10-10 10z" fill="#f4efed"/><path d="M128 176.405l-41.92-24.202-19.091 11.022L128 198.449l61.011-35.224-19.091-11.022z" fill="#526faa"/><path d="M128 57.551v22.044l41.92 24.203v48.405l19.091 11.022v-70.45z" fill="#fcc24c"/><path d="M86.08 103.798L128 79.595V57.551L66.989 92.775v70.45l19.091-11.022z" fill="#8852a8"/><path d="M200.938 4h-10c5.523 0 10 4.477 10 10v228c0 5.523-4.477 10-10 10h10c5.523 0 10-4.477 10-10V14c0-5.523-4.477-10-10-10z" fill="#d6d1cf"/><path d="M55.062 252h10c-5.523 0-10-4.477-10-10V14c0-5.523 4.477-10 10-10h-10c-5.523 0-10 4.477-10 10v228c0 5.523 4.477 10 10 10z" fill="#fff"/><path d="M159.852 27.611H96.147a9.999 9.999 0 01-9.208-6.1L79.523 4h96.954l-7.416 17.511a10.001 10.001 0 01-9.209 6.1z" fill="#526faa"/><path d="M200.938 254H55.062c-6.617 0-12-5.383-12-12V14c0-6.617 5.383-12 12-12h145.876c6.617 0 12 5.383 12 12v228c0 6.617-5.382 12-12 12zM55.062 6c-4.411 0-8 3.589-8 8v228c0 4.411 3.589 8 8 8h145.876c4.411 0 8-3.589 8-8V14c0-4.411-3.589-8-8-8z" fill="#690589"/><path d="M55.062 42.33a2 2 0 01-2-2v-12a2 2 0 014 0v12a2 2 0 01-2 2zm104.791-12.719H96.147a11.98 11.98 0 01-11.05-7.32L77.681 4.78A2.002 2.002 0 0179.523 2h96.955c.671 0 1.297.336 1.667.896.371.559.437 1.267.175 1.885l-7.417 17.511a11.98 11.98 0 01-11.05 7.319zM82.542 6l6.239 14.731a7.986 7.986 0 007.366 4.88h63.705a7.987 7.987 0 007.366-4.88L173.458 6zM128 200.449c-.345 0-.69-.089-1-.268l-61.011-35.225a2 2 0 010-3.464L85.08 150.47a2.001 2.001 0 012 0L128 174.095l40.92-23.625a2.001 2.001 0 012 0l19.091 11.022a2 2 0 010 3.464L129 200.181c-.31.179-.655.268-1 .268zm-57.011-37.224L128 196.14l57.011-32.915-15.091-8.712L129 178.137a2.001 2.001 0 01-2 0l-40.92-23.625z" fill="#690589"/><path d="M189.011 165.225c-.346 0-.69-.089-1-.268l-19.091-11.022a2 2 0 01-1-1.732v-47.25L127 81.327a2 2 0 01-1-1.732V57.551a2 2 0 013-1.732l61.011 35.225a2 2 0 011 1.732v70.449a2 2 0 01-2 2zm-17.091-14.177l15.091 8.713V93.93L130 61.015V78.44l40.92 23.625a2 2 0 011 1.732z" fill="#690589"/><path d="M66.989 165.225a1.997 1.997 0 01-2-2v-70.45a2 2 0 011-1.732L127 55.819a2.001 2.001 0 013 1.732v22.044a2 2 0 01-1 1.732l-40.92 23.625v47.25a2 2 0 01-1 1.732l-19.091 11.022a1.996 1.996 0 01-1 .269zm2-71.295v65.831l15.091-8.713v-47.25a2 2 0 011-1.732L126 78.44V61.015zm17.091 58.273h.01z" fill="#690589"/><path d="M109.768 145.335c-7.974 0-14.314-6.439-14.314-14.313V113.39c0-1.536 1.189-2.724 2.724-2.724 1.485 0 2.774 1.189 2.774 2.724v17.632c0 4.853 3.962 8.816 8.816 8.816a8.803 8.803 0 008.815-8.816V113.39c0-1.536 1.238-2.724 2.774-2.724 1.535 0 2.724 1.189 2.724 2.724v17.632c0 7.874-6.388 14.313-14.313 14.313zm50.266-29.964l-9.411 12.778 9.411 12.877c.841 1.189.644 2.922-.594 3.764-.496.347-1.04.545-1.585.545-.892 0-1.684-.446-2.229-1.139l-8.321-11.441-8.37 11.441c-.545.694-1.337 1.139-2.179 1.139a2.559 2.559 0 01-1.585-.545c-1.238-.842-1.485-2.575-.643-3.764l9.41-12.877-9.41-12.778c-.842-1.238-.595-2.922.643-3.764 1.189-.941 2.923-.694 3.764.594l8.37 11.391 8.321-11.391c.941-1.288 2.575-1.536 3.814-.594 1.238.841 1.436 2.525.594 3.764z" fill="#690589"/></svg>